<svg
    xmlns:dc="http://purl.org/dc/elements/1.1/"
    xmlns:cc="http://creativecommons.org/ns#"
    xmlns:rdf="http://www.w3.org/1999/02/22-rdf-syntax-ns#"
    xmlns:svg="http://www.w3.org/2000/svg"
    xmlns="http://www.w3.org/2000/svg"
    xmlns:sodipodi="http://sodipodi.sourceforge.net/DTD/sodipodi-0.dtd"
    xmlns:inkscape="http://www.inkscape.org/namespaces/inkscape"
    viewBox="0 0 295.53958 136.75848"
    version="1.1"
    inkscape:version="1.0.2 (e86c870879, 2021-01-15)"
    sodipodi:docname="house.2svg.svg"
  >
    <defs id="defs2" />
    <sodipodi:namedview
      id="base"
      pagecolor="#ffffff"
      bordercolor="#666666"
      borderopacity="1.0"
      inkscape:pageopacity="0.0"
      inkscape:pageshadow="2"
      inkscape:zoom="0.35"
      inkscape:cx="400"
      inkscape:cy="560"
      inkscape:document-units="mm"
      inkscape:current-layer="layer1"
      inkscape:document-rotation="0"
      showgrid="false"
      inkscape:window-width="1920"
      inkscape:window-height="1001"
      inkscape:window-x="-9"
      inkscape:window-y="-9"
      inkscape:window-maximized="1"
    />
    <metadata id="metadata5">
      <rdf:RDF>
        <cc:Work rdf:about="">
          <dc:format>image/svg+xml</dc:format>
          <dc:type rdf:resource="http://purl.org/dc/dcmitype/StillImage" />
          <dc:title></dc:title>
        </cc:Work>
      </rdf:RDF>
    </metadata>
    <g id="layer1" inkscape:label="Capa 1" inkscape:groupmode="layer">
      <g id="g363">
        <g
          id="g241"
          transform="matrix(0.25992927,0,0,0.25746739,0,5.1493478e-6)"
        >
          <path
            id="path12"
            d="m 157.39819,712.97183 -1.95117,-0.43945 C 177.20288,615.78138 231.8772,527.923 309.39819,465.14078 A 444.114,444.114 0 0 1 1021.553,711.35172 l -1.9492,0.44335 C 973.55005,509.58609 796.32935,368.3605 588.634,368.3605 c -204.9736,0 -386.33444,144.92969 -431.23581,344.61133 z"
            transform="translate(-31.5,-184.41592)"
            fill="#3f3d56"
          />
          <polygon
            id="polygon14"
            points="1054.5,504.5 1033.5,506.5 1036.5,479.5 1051.5,482.5 "
            fill="#a0616a"
          />
          <path
            id="path16"
            d="m 984,364.91592 c 0,0 2,27 2,28 0,1 -14,70 -14,70 0,0 -20,38 0,37 20,-1 14,-36 14,-36 l 21,-58 -9,-41 z"
            transform="translate(-31.5,-184.41592)"
            fill="#a0616a"
          />
          <polygon
            id="polygon18"
            points="982.5,504.5 1003.5,506.5 1000.5,479.5 985.5,482.5 "
            fill="#a0616a"
          />
          <path
            id="path20"
            d="m 994,460.91592 -5,7 c 0,0 -3,30 0,40 3,10 9,56 9,59 0,3 1,5 0,6 -1,1 -4,1 -2,3 2,2 2,8 2,8 v 5 l 13,74 c 0,0 -8,9 -2,9 6,0 28,0 27,-10 l -2,-1 c 0,0 -3,-66 -2,-69 1,-3 0,-9 0,-9 0,0 -2,-3 0,-4 2,-1 2,-9 2,-9 l 9,-61 c 0,0 8,41 13,45 5,4 4,14 4,14 l 4,88 c 0,0 -4,10 0,12 4,2 21,9 22,-1 1,-10 6,-97 6,-101 0,-4 -1,-6 0,-9 1,-3 -1,-3 0,-3 1,0 -2,-3 -2,-5 v -49 c 0,0 1,-10 2,-12 1,-2 -1,-4 0,-7 1,-3 -2,-13 -2,-13 l -45,-12 z"
            transform="translate(-31.5,-184.41592)"
            fill="#2f2e41"
          />
          <path
            id="path22"
            d="m 1029,684.91592 c 0,0 5,-5 -2,-5 a 32.54943,32.54943 0 0 0 -13,3 l -5,18 c 0,0 -20.5,16.5 2.5,14.5 23,-2 19.5,-0.5 19.5,-0.5 0,0 7,-2 8,-4 1,-2 -2,-31 -2,-31 0,0 -3,8 -8,5 z"
            transform="translate(-31.5,-184.41592)"
            fill="#2f2e41"
          />
          <path
            id="path24"
            d="m 1072,684.91592 c 0,0 -5,-5 2,-5 a 32.54943,32.54943 0 0 1 13,3 l 5,18 c 0,0 20.5,16.5 -2.5,14.5 -23,-2 -22.5,-0.5 -22.5,-0.5 0,0 -7,-2 -8,-4 -1,-2 5,-31 5,-31 0,0 3,8 8,5 z"
            transform="translate(-31.5,-184.41592)"
            fill="#2f2e41"
          />
          <rect
            id="rect26"
            x="286.14105"
            y="177.43179"
            width="8.9026203"
            height="351.65344"
            fill="#3f3d56"
          />
          <path
            id="path28"
            d="m 408.70474,406.6619 c 0.56672,122.96444 -85.94527,223.04766 -85.94527,223.04766 0,0 -87.43083,-99.28154 -87.99756,-222.246 -0.56673,-122.96446 85.94527,-223.04766 85.94527,-223.04766 0,0 87.43082,99.28156 87.99756,222.246 z"
            transform="translate(-31.5,-184.41592)"
            fill="#6c63ff"
            class="fill-logoInv3"
          />
          <rect
            id="rect30"
            x="225.5"
            y="383.5"
            width="689"
            height="146"
            fill="#f2f2f2"
          />
          <polygon
            points="278.5,242.5 877.5,242.5 933.5,399.5 203.5,399.5 "
            fill="#3f3d56"
          />
          <rect x="390.5" y="252.5" width="278" height="92" fill="#f2f2f2" />
          <polygon
            points="364.5,269.5 694.5,269.5 668.5,177.5 408.5,177.5 "
            fill="#3f3d56"
          />
          <rect x="415" y="412.5" width="219.5" height="117" fill="#cccccc" />
          <rect x="252.5" y="416.5" width="117" height="113" fill="#cccccc" />
          <rect x="672.5" y="423.5" width="60.5" height="106" fill="#3f3d56" />
          <rect y="529" width="1137" height="2" fill="#3f3d56" x="0" />
          <rect
            x="179.90491"
            y="297.05884"
            width="5.8747702"
            height="232.0535"
            fill="#3f3d56"
          />
          <path
            d="m 271.49715,511.0473 c 0.374,81.14332 -56.71464,147.18749 -56.71464,147.18749 0,0 -57.695,-65.51515 -58.06894,-146.65847 -0.37394,-81.14332 56.71464,-147.1875 56.71464,-147.1875 0,0 57.69496,65.51518 58.06894,146.65848 z"
            transform="translate(-31.5,-184.41592)"
            fill="#6c63ff"
            class="fill-logoInv3"
          />
          <path
            d="m 271.49715,511.0473 c 0.374,81.14332 -56.71464,147.18749 -56.71464,147.18749 0,0 -57.695,-65.51515 -58.06894,-146.65847 -0.37394,-81.14332 56.71464,-147.1875 56.71464,-147.1875 0,0 57.69496,65.51518 58.06894,146.65848 z"
            transform="translate(-31.5,-184.41592)"
            opacity="0.1"
          />
          <rect
            x="103.53286"
            y="297.05884"
            width="5.8747702"
            height="232.0535"
            fill="#3f3d56"
          />
          <path
            d="m 195.12511,511.0473 c 0.374,81.14332 -56.71464,147.18749 -56.71464,147.18749 0,0 -57.695,-65.51515 -58.06894,-146.65847 -0.37394,-81.14332 56.71465,-147.1875 56.71465,-147.1875 0,0 57.69496,65.51518 58.06893,146.65848 z"
            transform="translate(-31.5,-184.41592)"
            fill="#6c63ff"
            class="fill-logoInv3"
          />
          <rect x="798.5" y="429.5" width="29.5" height="27.5" fill="#3f3d56" />
          <rect x="838" y="429.5" width="29.5" height="27.5" fill="#3f3d56" />
          <rect x="798.5" y="467" width="29.5" height="28.5" fill="#3f3d56" />
          <rect x="838" y="467" width="29.5" height="28.5" fill="#3f3d56" />
          <rect
            x="416"
            y="277.67392"
            width="23.08696"
            height="21.52174"
            fill="#3f3d56"
          />
          <rect
            x="446.91302"
            y="277.67392"
            width="23.08696"
            height="21.52174"
            fill="#3f3d56"
          />
          <rect
            x="416"
            y="307.02173"
            width="23.08696"
            height="22.30435"
            fill="#3f3d56"
          />
          <rect
            x="446.91302"
            y="307.02173"
            width="23.08696"
            height="22.30435"
            fill="#3f3d56"
          />
          <rect
            x="589"
            y="277.67392"
            width="23.08696"
            height="21.52174"
            fill="#3f3d56"
          />
          <rect
            x="619.91302"
            y="277.67392"
            width="23.08696"
            height="21.52174"
            fill="#3f3d56"
          />
          <rect
            x="589"
            y="307.02173"
            width="23.08696"
            height="22.30435"
            fill="#3f3d56"
          />
          <rect
            x="619.91302"
            y="307.02173"
            width="23.08696"
            height="22.30435"
            fill="#3f3d56"
          />
          <rect
            x="503"
            y="277.67392"
            width="23.08696"
            height="21.52174"
            fill="#3f3d56"
          />
          <rect
            x="533.91302"
            y="277.67392"
            width="23.08696"
            height="21.52174"
            fill="#3f3d56"
          />
          <rect
            x="503"
            y="307.02173"
            width="23.08696"
            height="22.30435"
            fill="#3f3d56"
          />
          <rect
            x="533.91302"
            y="307.02173"
            width="23.08696"
            height="22.30435"
            fill="#3f3d56"
          />
          <rect
            x="686"
            y="434.23914"
            width="14.53623"
            height="13.55072"
            fill="#f2f2f2"
          />
          <rect
            x="705.46375"
            y="434.23914"
            width="14.53623"
            height="13.55072"
            fill="#f2f2f2"
          />
          <rect
            x="686"
            y="452.71738"
            width="14.53623"
            height="14.04348"
            fill="#f2f2f2"
          />
          <rect
            x="705.46375"
            y="452.71738"
            width="14.53623"
            height="14.04348"
            fill="#f2f2f2"
          />
          <circle cx="725" cy="484" r="4" fill="#f2f2f2" />
          <rect x="415" y="425" width="220" height="2" fill="#f2f2f2" />
          <rect x="415" y="434" width="220" height="2" fill="#f2f2f2" />
          <rect x="415" y="443" width="220" height="2" fill="#f2f2f2" />
          <rect x="415" y="452" width="220" height="2" fill="#f2f2f2" />
          <rect x="415" y="461" width="220" height="2" fill="#f2f2f2" />
          <rect x="415" y="470" width="220" height="2" fill="#f2f2f2" />
          <rect x="415" y="479" width="220" height="2" fill="#f2f2f2" />
          <rect x="415" y="488" width="220" height="2" fill="#f2f2f2" />
          <rect x="415" y="497" width="220" height="2" fill="#f2f2f2" />
          <rect x="415" y="506" width="220" height="2" fill="#f2f2f2" />
          <rect x="415" y="515" width="220" height="2" fill="#f2f2f2" />
          <rect x="252.5" y="425" width="117" height="2" fill="#f2f2f2" />
          <rect x="252.5" y="434" width="117" height="2" fill="#f2f2f2" />
          <rect x="252.5" y="443" width="117" height="2" fill="#f2f2f2" />
          <rect x="252.5" y="452" width="117" height="2" fill="#f2f2f2" />
          <rect x="252.5" y="461" width="117" height="2" fill="#f2f2f2" />
          <rect x="252.5" y="470" width="117" height="2" fill="#f2f2f2" />
          <rect x="252.5" y="479" width="117" height="2" fill="#f2f2f2" />
          <rect x="252.5" y="488" width="117" height="2" fill="#f2f2f2" />
          <rect x="252.5" y="497" width="117" height="2" fill="#f2f2f2" />
          <rect x="252.5" y="506" width="117" height="2" fill="#f2f2f2" />
          <rect x="252.5" y="515" width="117" height="2" fill="#f2f2f2" />
          <circle
            cx="877"
            cy="242"
            r="81"
            fill="#6c63ff"
            class="fill-logoInv3"
          />
          <circle cx="975.5" cy="75.5" r="26" fill="#a0616a" />
          <path
            d="m 998,278.91592 c 0,0 4,20 4,23 0,3 17,12 17,12 l 19,-24 c 0,0 -12,-17 -12,-21 z"
            transform="translate(-31.5,-184.41592)"
            fill="#a0616a"
          />
          <path
            d="m 1013,304.91592 c 0,0 -8.7158,-2.31982 -11.3579,-6.15991 0,0 -27.6421,27.15991 -27.6421,32.15991 l 22,39 c 0,0 0,14 2,15 2,1 0,0 0,4 0,4 -6,30 -4,34 2,4 4,1 2,7 -2,6 -7,38 -7,38 0,0 18,-6 44,4 26,10 57,-4 57,-4 0,0 -8,-18 -6,-24 2,-6 -5,-17 -5,-17 l -5,-92 c 0,0 7,-41 2,-43 l -10,-4 -32.024,-3.93592 c 0,0 -7.976,19.93592 -20.976,20.93592 z"
            transform="translate(-31.5,-184.41592)"
            fill="#d0cde1"
          />
          <path
            d="m 984,323.91592 -10,7 c 0,0 -5,15 0,22 5,7 7,17 7,17 l 20,-2 z"
            transform="translate(-31.5,-184.41592)"
            fill="#d0cde1"
          />
          <path
            d="m 1058,332.91592 c 0,0 -5.7909,14.89077 -4.5812,29.62368 a 15.614,15.614 0 0 0 2.5812,7.37632 v 0 L 985.05556,403.597 c 0,0 -32.05556,3.31892 -24.05556,17.31892 8,14 37,-7 37,-7 0,0 76,-11 82,-22 6,-11 10,-57 10,-57 z"
            transform="translate(-31.5,-184.41592)"
            fill="#a0616a"
          />
          <path
            d="m 987.14914,232.43838 -4.51,-1.80556 c 0,0 9.43,-10.38191 22.55016,-9.4791 l -3.6901,-4.06253 c 0,0 9.02,-3.61106 17.22,5.868 4.3106,4.983 9.298,10.84016 12.4072,17.43823 h 4.8299 l -2.0159,4.43863 7.0555,4.43863 -7.2417,-0.7973 a 24.561,24.561 0 0 1 -0.685,11.49557 l 0.1941,3.50829 c 0,0 -8.3941,-12.98745 -8.3941,-14.793 v 4.51388 c 0,0 -4.51,-4.06247 -4.51,-6.77078 l -2.46,3.15972 -1.23,-4.96529 -15.17,4.96529 2.46,-4.06247 -9.43003,1.35416 3.69011,-4.96529 c 0,0 -10.66,5.868 -11.07009,10.83332 -0.41009,4.96532 -5.7399,11.28466 -5.7399,11.28466 l -2.46,-4.51388 c 0,0 -3.69016,-20.3124 8.19985,-27.08318 z"
            transform="translate(-31.5,-184.41592)"
            fill="#2f2e41"
          />
          <path
            d="m 1061,291.91592 h 15 c 0,0 11,2 14,22 3,20 6,25 3,25 -3,0 -39,-1 -39,-2 0,-1 7,-45 7,-45 z"
            transform="translate(-31.5,-184.41592)"
            fill="#d0cde1"
          />
        </g>
        <g
          transform="matrix(0.00234455,0,0,-0.00234455,211.85606,77.295584)"
          fill="#000000"
          stroke="none"
          style="fill: #ffffff"
        >
          <path
            d="M 8470,12223 C 6586,12162 4862,11190 3837,9609 3660,9336 3467,8968 3337,8655 l -25,-60 -1019,-5 c -782,-4 -1023,-8 -1040,-17 -24,-14 -14,11 -275,-688 C 657,7023 599,6861 598,6828 c -1,-22 6,-38 24,-53 24,-21 38,-22 268,-28 134,-4 563,-8 954,-9 391,-1 648,-5 571,-8 -138,-6 -139,-6 -40,-8 98,-3 243,-21 317,-40 53,-14 159,-66 185,-91 13,-12 24,-18 24,-14 5,27 17,-123 19,-232 1,-71 5,-175 9,-231 l 6,-101 -834,-6 -834,-6 -23,-23 c -33,-35 -644,-1676 -644,-1732 0,-19 9,-44 19,-57 l 19,-24 1128,-3 c 636,-1 1132,-6 1138,-11 6,-5 52,-12 101,-16 200,-14 329,-44 422,-96 41,-23 44,-23 37,-1 -3,9 36,-59 86,-153 322,-595 645,-1032 1082,-1461 456,-448 909,-770 1483,-1054 582,-289 1158,-463 1810,-550 314,-41 863,-53 1196,-25 101,9 189,13 196,10 8,-2 12,-1 9,4 -6,10 116,25 198,25 33,0 51,3 40,6 -27,10 58,22 104,15 29,-4 33,-3 17,5 -15,7 -8,8 30,5 37,-3 43,-2 25,4 -15,5 -18,9 -9,10 9,1 32,3 50,6 29,4 30,3 9,-4 -60,-21 20,-9 179,28 175,41 376,99 368,107 -2,3 -16,0 -31,-6 -15,-5 -33,-10 -39,-9 -7,0 65,26 158,58 275,94 571,218 608,255 11,11 17,33 17,59 v 42 l -767,767 c -518,517 -777,769 -795,773 -16,4 -77,-2 -140,-14 -196,-36 -307,-50 -520,-62 -300,-17 -598,5 -908,67 -559,113 -1098,366 -1535,720 -107,87 -200,172 -165,150 l 25,-15 1,62 c 1,94 42,148 149,198 143,67 362,89 1001,98 426,6 463,7 482,24 11,10 59,121 108,247 48,126 91,227 95,225 4,-3 9,1 12,8 134,333 188,487 180,518 -4,15 -3,20 5,15 7,-4 10,-2 7,6 -3,8 48,164 114,347 66,183 123,345 126,361 5,22 0,35 -22,58 l -28,30 -330,6 c -181,3 -935,7 -1675,7 -740,1 -1329,4 -1310,8 26,5 31,8 18,13 -27,11 -67,100 -80,178 -15,85 -1,186 36,258 45,89 144,168 258,206 81,27 208,44 348,48 89,2 86,3 -45,8 -77,3 370,7 993,8 1011,2 1138,4 1167,18 37,17 53,50 155,321 29,78 57,140 62,137 4,-3 5,2 2,10 -3,8 -1,23 6,33 9,15 10,14 4,-7 -25,-96 90,188 155,378 43,128 48,147 30,122 -15,-20 -22,-41 126,370 70,195 127,370 128,388 1,21 -7,40 -21,55 l -23,22 -1237,5 c -680,3 -1237,7 -1237,8 0,1 -1,37 -3,80 -4,90 11,145 68,242 46,79 81,121 180,221 87,88 182,168 277,236 38,26 70,50 73,53 3,3 43,30 90,61 205,134 361,218 605,324 117,51 422,153 540,180 133,31 300,63 360,70 33,4 68,9 79,11 10,2 51,6 90,9 39,4 89,8 111,11 22,2 141,4 265,2 481,-4 471,-4 450,-18 -11,-8 -8,-9 13,-4 57,13 428,-75 671,-160 163,-57 194,-63 226,-46 10,5 68,95 130,200 62,104 116,187 120,185 13,-8 176,250 353,562 57,99 119,234 112,241 -3,3 -5,1 -5,-4 0,-6 -7,-19 -15,-30 -15,-17 -15,-16 -1,11 8,17 80,147 160,290 152,271 164,302 129,343 -38,45 -504,230 -793,315 -494,146 -921,216 -1445,237 -137,5 -259,9 -270,8 -11,-1 -58,-3 -105,-5 z m 1930,-1883 c -6,-11 -13,-20 -16,-20 -2,0 0,9 6,20 6,11 13,20 16,20 2,0 0,-9 -6,-20 z m -32,-55 c -6,-14 -13,-23 -15,-21 -5,5 15,46 22,46 3,0 -1,-11 -7,-25 z m -1680,-162 c -32,-2 -84,-2 -115,0 -32,2 -6,3 57,3 63,0 89,-1 58,-3 z m 230,-10 c -15,-2 -42,-2 -60,0 -18,2 -6,4 27,4 33,0 48,-2 33,-4 z m 110,-10 c -10,-2 -28,-2 -40,0 -13,2 -5,4 17,4 22,1 32,-1 23,-4 z M 8241,7673 c -12,-20 -14,-14 -5,12 4,9 9,14 11,11 3,-2 0,-13 -6,-23 z m -120,-320 c -12,-20 -14,-14 -5,12 4,9 9,14 11,11 3,-2 0,-13 -6,-23 z m 138,-2222 c -6,-18 -13,-30 -15,-28 -2,2 1,18 7,36 6,18 13,30 15,28 2,-2 -1,-18 -7,-36 z m -160,-430 c -6,-18 -13,-30 -15,-28 -2,2 1,18 7,36 6,18 13,30 15,28 2,-2 -1,-18 -7,-36 z M 2963,4153 c -7,-2 -21,-2 -30,0 -10,3 -4,5 12,5 17,0 24,-2 18,-5 z m 3930,0 c -13,-2 -35,-2 -50,0 -16,2 -5,4 22,4 28,0 40,-2 28,-4 z M 10247,994 c -3,-3 -12,-4 -19,-1 -8,3 -5,6 6,6 11,1 17,-2 13,-5 z m -70,-20 c -3,-3 -12,-4 -19,-1 -8,3 -5,6 6,6 11,1 17,-2 13,-5 z m -70,-20 c -3,-3 -12,-4 -19,-1 -8,3 -5,6 6,6 11,1 17,-2 13,-5 z m -80,-20 c -3,-3 -12,-4 -19,-1 -8,3 -5,6 6,6 11,1 17,-2 13,-5 z m -84,-21 c -7,-2 -19,-2 -25,0 -7,3 -2,5 12,5 14,0 19,-2 13,-5 z m -46,-9 c -3,-3 -12,-4 -19,-1 -8,3 -5,6 6,6 11,1 17,-2 13,-5 z m -44,-11 c -7,-2 -19,-2 -25,0 -7,3 -2,5 12,5 14,0 19,-2 13,-5 z"
            style="fill: #ffffff"
          />
          <path
            d="m 9093,10083 c 9,-2 23,-2 30,0 6,3 -1,5 -18,5 -16,0 -22,-2 -12,-5 z"
            style="fill: #ffffff"
          />
          <path
            d="m 8071,4633 c -1,-6 -4,-20 -7,-30 -5,-17 -5,-17 6,0 6,10 9,23 6,30 -3,9 -5,9 -5,0 z"
            style="fill: #ffffff"
          />
          <path
            d="m 2017,4143 c 161,-2 425,-2 585,0 161,1 30,2 -292,2 -322,0 -453,-1 -293,-2 z"
            style="fill: #ffffff"
          />
          <path
            d="m 7003,4143 c 31,-2 83,-2 115,0 31,2 5,3 -58,3 -63,0 -89,-1 -57,-3 z"
            style="fill: #ffffff"
          />
          <path
            d="m 9613,843 c 9,-2 23,-2 30,0 6,3 -1,5 -18,5 -16,0 -22,-2 -12,-5 z"
            style="fill: #ffffff"
          />
          <path
            d="m 9488,823 c 6,-2 18,-2 25,0 6,3 1,5 -13,5 -14,0 -19,-2 -12,-5 z"
            style="fill: #ffffff"
          />
          <path
            d="m 9418,813 c 7,-3 16,-2 19,1 4,3 -2,6 -13,5 -11,0 -14,-3 -6,-6 z"
            style="fill: #ffffff"
          />
          <path
            d="m 9258,793 c 6,-2 18,-2 25,0 6,3 1,5 -13,5 -14,0 -19,-2 -12,-5 z"
            style="fill: #ffffff"
          />
        </g>
      </g>
    </g>
  </svg>