<svg class='w-full' viewBox="0 0 248 116" fill="none" xmlns="http://www.w3.org/2000/svg">
    <rect
      x="106"
      y="48"
      width="142"
      height="20"
      fill="#000066"
      class="fill-accent"
    />
    <rect
      x="2.84567"
      y="58"
      width="78"
      height="78"
      transform="rotate(-45 2.84567 58)"
      fill="white"
      class="fill-white"
      stroke="#000066"
      stroke-width="4"
    />
    <path
      d="M47.8311 68H42.8506V57.6406H33.1387V68H28.1582V43.8281H33.1387V53.623H42.8506V43.8281H47.8311V68ZM63.3369 68H58.5391V49.5059L52.8115 51.2822V47.3809L62.8223 43.7949H63.3369V68ZM87.4756 58.0059C87.4756 61.3483 86.7839 63.9049 85.4004 65.6758C84.0169 67.4466 81.9915 68.332 79.3242 68.332C76.6901 68.332 74.6758 67.4632 73.2812 65.7256C71.8867 63.988 71.1729 61.4977 71.1396 58.2549V53.8057C71.1396 50.43 71.8369 47.8678 73.2314 46.1191C74.637 44.3704 76.6569 43.4961 79.291 43.4961C81.9251 43.4961 83.9395 44.3649 85.334 46.1025C86.7285 47.8291 87.4424 50.3138 87.4756 53.5566V58.0059ZM82.6777 53.125C82.6777 51.1217 82.401 49.6663 81.8477 48.7588C81.3053 47.8402 80.4531 47.3809 79.291 47.3809C78.1621 47.3809 77.3265 47.818 76.7842 48.6924C76.2529 49.5557 75.9707 50.9115 75.9375 52.7598V58.6367C75.9375 60.6068 76.2031 62.0732 76.7344 63.0361C77.2767 63.988 78.14 64.4639 79.3242 64.4639C80.4974 64.4639 81.3441 64.0046 81.8643 63.0859C82.3844 62.1673 82.6556 60.7617 82.6777 58.8691V53.125Z"
      class="fill-accent"
    />
    <path
      d="M124.191 60.3135L125.162 55.6035H127.069L125.183 63H123.528L122.127 58.3447L120.726 63H119.078L117.191 55.6035H119.099L120.062 60.3066L121.416 55.6035H122.845L124.191 60.3135ZM134.486 60.3135L135.457 55.6035H137.364L135.478 63H133.823L132.422 58.3447L131.021 63H129.373L127.486 55.6035H129.394L130.357 60.3066L131.711 55.6035H133.14L134.486 60.3135ZM144.781 60.3135L145.752 55.6035H147.659L145.772 63H144.118L142.717 58.3447L141.315 63H139.668L137.781 55.6035H139.688L140.652 60.3066L142.006 55.6035H143.435L144.781 60.3135ZM147.898 62.0293C147.898 61.7148 148.003 61.4596 148.213 61.2637C148.427 61.0677 148.694 60.9697 149.013 60.9697C149.336 60.9697 149.603 61.0677 149.812 61.2637C150.027 61.4596 150.134 61.7148 150.134 62.0293C150.134 62.3392 150.029 62.5921 149.819 62.7881C149.61 62.9795 149.341 63.0752 149.013 63.0752C148.689 63.0752 148.423 62.9795 148.213 62.7881C148.003 62.5921 147.898 62.3392 147.898 62.0293ZM153.798 56.4102C154.322 55.7812 154.98 55.4668 155.773 55.4668C157.378
      55.4668 158.191 56.3988 158.214 58.2627V63H156.238V58.3174C156.238 57.8936 156.147 57.5814 155.965 57.3809C155.783 57.1758 155.479 57.0732 155.056 57.0732C154.477 57.0732 154.058 57.2965 153.798 57.7432V63H151.822V52.5H153.798V56.4102ZM161.789 63H159.807V55.6035H161.789V63ZM159.69 53.6895C159.69 53.3932 159.788 53.1494 159.984 52.958C160.185 52.7666 160.456 52.6709 160.798 52.6709C161.135 52.6709 161.404 52.7666 161.604 52.958C161.805 53.1494 161.905 53.3932 161.905 53.6895C161.905 53.9902 161.803 54.2363 161.598 54.4277C161.397 54.6191 161.131 54.7148 160.798 54.7148C160.465 54.7148 160.196 54.6191 159.991 54.4277C159.791 54.2363 159.69 53.9902 159.69 53.6895ZM170.081 59.3701C170.081 60.5094 169.821 61.4232 169.302 62.1113C168.787 62.7949 168.09 63.1367 167.21 63.1367C166.463 63.1367 165.859 62.877 165.398 62.3574V65.8438H163.423V55.6035H165.255L165.323 56.3281C165.802 55.7539 166.426 55.4668 167.196 55.4668C168.108 55.4668 168.816 55.804 169.322 56.4785C169.828 57.153 170.081 58.0827
      170.081 59.2676V59.3701ZM168.105 59.2266C168.105 58.5384 167.982 58.0075 167.736 57.6338C167.495 57.2601 167.142 57.0732 166.677 57.0732C166.057 57.0732 165.631 57.3102 165.398 57.7842V60.8125C165.64 61.3001 166.071 61.5439 166.69 61.5439C167.634 61.5439 168.105 60.7715 168.105 59.2266ZM171.004 59.2334C171.004 58.4997 171.145 57.8457 171.428 57.2715C171.71 56.6973 172.116 56.2529 172.645 55.9385C173.178 55.624 173.795 55.4668 174.497 55.4668C175.495 55.4668 176.309 55.7721 176.938 56.3828C177.571 56.9935 177.924 57.8229 177.997 58.8711L178.011 59.377C178.011 60.5117 177.694 61.4232 177.061 62.1113C176.427 62.7949 175.577 63.1367 174.511 63.1367C173.444 63.1367 172.592 62.7949 171.954 62.1113C171.321 61.4277 171.004 60.498 171.004 59.3223V59.2334ZM172.979 59.377C172.979 60.0788 173.112 60.6165 173.376 60.9902C173.64 61.3594 174.019 61.5439 174.511 61.5439C174.989 61.5439 175.363 61.3617 175.632 60.9971C175.901 60.6279 176.035 60.04 176.035 59.2334C176.035 58.5452 175.901 58.012 175.632
      57.6338C175.363 57.2555 174.985 57.0664 174.497 57.0664C174.014 57.0664 173.64 57.2555 173.376 57.6338C173.112 58.0075 172.979 58.5885 172.979 59.377ZM181.593 53.7852V55.6035H182.857V57.0527H181.593V60.7441C181.593 61.0176 181.645 61.2135 181.75 61.332C181.855 61.4505 182.055 61.5098 182.352 61.5098C182.57 61.5098 182.764 61.4938 182.933 61.4619V62.959C182.545 63.0775 182.146 63.1367 181.736 63.1367C180.351 63.1367 179.645 62.4372 179.617 61.0381V57.0527H178.537V55.6035H179.617V53.7852H181.593ZM187.362 63.1367C186.278 63.1367 185.394 62.804 184.71 62.1387C184.031 61.4733 183.691 60.5869 183.691 59.4795V59.2881C183.691 58.5452 183.835 57.8822 184.122 57.2988C184.409 56.7109 184.815 56.2598 185.339 55.9453C185.868 55.6263 186.469 55.4668 187.144 55.4668C188.155 55.4668 188.951 55.7858 189.529 56.4238C190.113 57.0618 190.404 57.9665 190.404 59.1377V59.9443H185.694C185.758 60.4274 185.95 60.8148 186.269 61.1064C186.592 61.3981 187 61.5439 187.492 61.5439C188.253 61.5439 188.848 61.2682
      189.276 60.7168L190.247 61.8037C189.951 62.223 189.55 62.5511 189.044 62.7881C188.538 63.0205 187.978 63.1367 187.362 63.1367ZM187.137 57.0664C186.745 57.0664 186.426 57.1986 186.18 57.4629C185.938 57.7272 185.783 58.1055 185.715 58.5977H188.463V58.4404C188.454 58.0029 188.335 57.6657 188.107 57.4287C187.88 57.1872 187.556 57.0664 187.137 57.0664ZM194.608 61.5439C194.973 61.5439 195.269 61.4437 195.497 61.2432C195.725 61.0426 195.843 60.776 195.853 60.4434H197.705C197.701 60.9447 197.564 61.4049 197.295 61.8242C197.026 62.2389 196.657 62.5625 196.188 62.7949C195.723 63.0228 195.208 63.1367 194.643 63.1367C193.585 63.1367 192.751 62.8018 192.141 62.1318C191.53 61.4574 191.225 60.5277 191.225 59.3428V59.2129C191.225 58.0736 191.528 57.1644 192.134 56.4854C192.74 55.8063 193.572 55.4668 194.629 55.4668C195.554 55.4668 196.295 55.7311 196.851 56.2598C197.411 56.7839 197.696 57.4834 197.705 58.3584H195.853C195.843 57.9756 195.725 57.6657 195.497 57.4287C195.269 57.1872 194.968 57.0664 194.595
      57.0664C194.134 57.0664 193.786 57.235 193.549 57.5723C193.316 57.9049 193.2 58.4473 193.2 59.1992V59.4043C193.2 60.1654 193.316 60.7122 193.549 61.0449C193.781 61.3776 194.134 61.5439 194.608 61.5439ZM203.119 63C203.028 62.8223 202.962 62.6012 202.921 62.3369C202.442 62.8701 201.82 63.1367 201.055 63.1367C200.33 63.1367 199.729 62.9271 199.25 62.5078C198.776 62.0885 198.539 61.5599 198.539 60.9219C198.539 60.138 198.828 59.5365 199.407 59.1172C199.991 58.6979 200.831 58.486 201.93 58.4814H202.839V58.0576C202.839 57.7158 202.75 57.4424 202.572 57.2373C202.399 57.0322 202.123 56.9297 201.745 56.9297C201.412 56.9297 201.15 57.0094 200.959 57.1689C200.772 57.3285 200.679 57.5472 200.679 57.8252H198.703C198.703 57.3968 198.835 57.0003 199.1 56.6357C199.364 56.2712 199.738 55.9863 200.221 55.7812C200.704 55.5716 201.246 55.4668 201.848 55.4668C202.759 55.4668 203.481 55.6969 204.015 56.1572C204.552 56.613 204.821 57.2555 204.821 58.085V61.291C204.826 61.9928 204.924 62.5238 205.115
      62.8838V63H203.119ZM201.485 61.626C201.777 61.626 202.046 61.5622 202.292 61.4346C202.538 61.3024 202.72 61.127 202.839 60.9082V59.6367H202.101C201.112 59.6367 200.585 59.9785 200.521 60.6621L200.515 60.7783C200.515 61.0244 200.601 61.2272 200.774 61.3867C200.948 61.5462 201.185 61.626 201.485 61.626ZM211.056 63H209.08V55.3848L206.722 56.1162V54.5098L210.844 53.0332H211.056V63ZM220.995 58.8848C220.995 60.2611 220.71 61.3138 220.141 62.043C219.571 62.7721 218.737 63.1367 217.639 63.1367C216.554 63.1367 215.725 62.779 215.15 62.0635C214.576 61.348 214.282 60.3226 214.269 58.9873V57.1553C214.269 55.7653 214.556 54.7103 215.13 53.9902C215.709 53.2702 216.54 52.9102 217.625 52.9102C218.71 52.9102 219.539 53.2679 220.113 53.9834C220.688 54.6943 220.981 55.7174 220.995 57.0527V58.8848ZM219.02 56.875C219.02 56.0501 218.906 55.4508 218.678 55.0771C218.454 54.6989 218.104 54.5098 217.625 54.5098C217.16 54.5098 216.816 54.6898 216.593 55.0498C216.374 55.4053 216.258 55.9635 216.244 56.7246V59.1445C216.244
      59.9557 216.354 60.5596 216.572 60.9561C216.796 61.348 217.151 61.5439 217.639 61.5439C218.122 61.5439 218.47 61.3548 218.685 60.9766C218.899 60.5983 219.01 60.0195 219.02 59.2402V56.875ZM222.52 62.0293C222.52 61.7148 222.624 61.4596 222.834 61.2637C223.048 61.0677 223.315 60.9697 223.634 60.9697C223.957 60.9697 224.224 61.0677 224.434 61.2637C224.648 61.4596 224.755 61.7148 224.755 62.0293C224.755 62.3392 224.65 62.5921 224.44 62.7881C224.231 62.9795 223.962 63.0752 223.634 63.0752C223.31 63.0752 223.044 62.9795 222.834 62.7881C222.624 62.5921 222.52 62.3392 222.52 62.0293ZM229.896 63.1367C228.811 63.1367 227.927 62.804 227.243 62.1387C226.564 61.4733 226.225 60.5869 226.225 59.4795V59.2881C226.225 58.5452 226.368 57.8822 226.655 57.2988C226.942 56.7109 227.348 56.2598 227.872 55.9453C228.401 55.6263 229.002 55.4668 229.677 55.4668C230.688 55.4668 231.484 55.7858 232.062 56.4238C232.646 57.0618 232.938 57.9665 232.938 59.1377V59.9443H228.228C228.291 60.4274 228.483 60.8148 228.802
      61.1064C229.125 61.3981 229.533 61.5439 230.025 61.5439C230.786 61.5439 231.381 61.2682 231.81 60.7168L232.78 61.8037C232.484 62.223 232.083 62.5511 231.577 62.7881C231.071 63.0205 230.511 63.1367 229.896 63.1367ZM229.67 57.0664C229.278 57.0664 228.959 57.1986 228.713 57.4629C228.471 57.7272 228.316 58.1055 228.248 58.5977H230.996V58.4404C230.987 58.0029 230.868 57.6657 230.641 57.4287C230.413 57.1872 230.089 57.0664 229.67 57.0664ZM238.071 60.9561C238.071 60.7145 237.951 60.5254 237.709 60.3887C237.472 60.2474 237.089 60.1221 236.561 60.0127C234.801 59.6436 233.922 58.8962 233.922 57.7705C233.922 57.1143 234.193 56.5674 234.735 56.1299C235.282 55.6878 235.995 55.4668 236.875 55.4668C237.814 55.4668 238.563 55.6878 239.124 56.1299C239.689 56.5719 239.972 57.1462 239.972 57.8525H237.996C237.996 57.57 237.905 57.3376 237.723 57.1553C237.54 56.9684 237.256 56.875 236.868 56.875C236.535 56.875 236.278 56.9502 236.096 57.1006C235.913 57.251 235.822 57.4424 235.822 57.6748C235.822 57.8936
      235.925 58.0713 236.13 58.208C236.34 58.3402 236.69 58.4564 237.183 58.5566C237.675 58.6523 238.09 58.7617 238.427 58.8848C239.47 59.2676 239.992 59.9307 239.992 60.874C239.992 61.5485 239.703 62.0954 239.124 62.5146C238.545 62.9294 237.798 63.1367 236.882 63.1367C236.262 63.1367 235.711 63.0273 235.228 62.8086C234.749 62.5853 234.373 62.2822 234.1 61.8994C233.826 61.512 233.689 61.0951 233.689 60.6484H235.562C235.581 60.9993 235.711 61.2682 235.952 61.4551C236.194 61.6419 236.517 61.7354 236.923 61.7354C237.301 61.7354 237.586 61.6647 237.777 61.5234C237.973 61.3776 238.071 61.1885 238.071 60.9561Z"
      fill="white"
    />
    <path
      d="M114.438 80H112.738V71H114.438V80ZM121.312 80C121.234 79.8477 121.177 79.6582 121.142 79.4316C120.732 79.8887 120.198 80.1172 119.542 80.1172C118.921 80.1172 118.405 79.9375 117.995 79.5781C117.589 79.2188 117.386 78.7656 117.386 78.2188C117.386 77.5469 117.634 77.0312 118.13 76.6719C118.63 76.3125 119.351 76.1309 120.292 76.127H121.071V75.7637C121.071 75.4707 120.995 75.2363 120.843 75.0605C120.695 74.8848 120.458 74.7969 120.134 74.7969C119.849 74.7969 119.624 74.8652 119.46 75.002C119.3 75.1387 119.22 75.3262 119.22 75.5645H117.527C117.527 75.1973 117.64 74.8574 117.866 74.5449C118.093 74.2324
      118.413 73.9883 118.827 73.8125C119.241 73.6328 119.706 73.543 120.222 73.543C121.003 73.543 121.622 73.7402 122.079 74.1348C122.54 74.5254 122.771 75.0762 122.771 75.7871V78.5352C122.775 79.1367 122.859 79.5918 123.023 79.9004V80H121.312ZM119.911 78.8223C120.161 78.8223 120.392 78.7676 120.603 78.6582C120.814 78.5449 120.97 78.3945 121.071 78.207V77.1172H120.439C119.591 77.1172 119.14 77.4102 119.085 77.9961L119.079 78.0957C119.079 78.3066 119.154 78.4805 119.302 78.6172C119.45 78.7539 119.654 78.8223 119.911 78.8223ZM132.447 80H130.748V71H132.447V80ZM137.434 80H135.735V71H137.434V80ZM144.309 80C144.23
      79.8477 144.174 79.6582 144.139 79.4316C143.729 79.8887 143.195 80.1172 142.539 80.1172C141.918 80.1172 141.402 79.9375 140.992 79.5781C140.586 79.2188 140.383 78.7656 140.383 78.2188C140.383 77.5469 140.631 77.0312 141.127 76.6719C141.627 76.3125 142.348 76.1309 143.289 76.127H144.068V75.7637C144.068 75.4707 143.992 75.2363 143.84 75.0605C143.691 74.8848 143.455 74.7969 143.131 74.7969C142.846 74.7969 142.621 74.8652 142.457 75.002C142.297 75.1387 142.217 75.3262 142.217 75.5645H140.523C140.523 75.1973 140.637 74.8574 140.863 74.5449C141.09 74.2324 141.41 73.9883 141.824 73.8125C142.238 73.6328 142.703
      73.543 143.219 73.543C144 73.543 144.619 73.7402 145.076 74.1348C145.537 74.5254 145.768 75.0762 145.768 75.7871V78.5352C145.771 79.1367 145.855 79.5918 146.02 79.9004V80H144.309ZM142.908 78.8223C143.158 78.8223 143.389 78.7676 143.6 78.6582C143.811 78.5449 143.967 78.3945 144.068 78.207V77.1172H143.436C142.588 77.1172 142.137 77.4102 142.082 77.9961L142.076 78.0957C142.076 78.3066 142.15 78.4805 142.299 78.6172C142.447 78.7539 142.65 78.8223 142.908 78.8223ZM151.148 77.9316L152.325 73.6602H154.095L151.956 80H150.339L148.2 73.6602H149.97L151.148 77.9316ZM159.481 80.1172C158.551 80.1172 157.793 79.832
      157.207 79.2617C156.625 78.6914 156.334 77.9316 156.334 76.9824V76.8184C156.334 76.1816 156.457 75.6133 156.704 75.1133C156.95 74.6094 157.297 74.2227 157.746 73.9531C158.2 73.6797 158.715 73.543 159.293 73.543C160.161 73.543 160.842 73.8164 161.338 74.3633C161.838 74.9102 162.088 75.6855 162.088 76.6895V77.3809H158.051C158.106 77.7949 158.27 78.127 158.543 78.377C158.821 78.627 159.17 78.752 159.592 78.752C160.245 78.752 160.754 78.5156 161.121 78.043L161.954 78.9746C161.7 79.334 161.356 79.6152 160.922 79.8184C160.489 80.0176 160.008 80.1172 159.481 80.1172ZM159.287 74.9141C158.952 74.9141 158.678
      75.0273 158.467 75.2539C158.26 75.4805 158.127 75.8047 158.069 76.2266H160.424V76.0918C160.416 75.7168 160.315 75.4277 160.12 75.2246C159.924 75.0176 159.647 74.9141 159.287 74.9141ZM169.38 76.7832C169.38 75.7949 169.6 75.0078 170.042 74.4219C170.487 73.8359 171.095 73.543 171.864 73.543C172.481 73.543 172.991 73.7734 173.393 74.2344V71H175.093V80H173.563L173.481 79.3262C173.059 79.8535 172.516 80.1172 171.852 80.1172C171.106 80.1172 170.507 79.8242 170.054 79.2383C169.604 78.6484 169.38 77.8301 169.38 76.7832ZM171.073 76.9062C171.073 77.5 171.177 77.9551 171.384 78.2715C171.591 78.5879 171.891 78.7461
      172.286 78.7461C172.809 78.7461 173.179 78.5254 173.393 78.084V75.582C173.182 75.1406 172.817 74.9199 172.298 74.9199C171.481 74.9199 171.073 75.582 171.073 76.9062ZM181.123 80.1172C180.193 80.1172 179.436 79.832 178.85 79.2617C178.268 78.6914 177.977 77.9316 177.977 76.9824V76.8184C177.977 76.1816 178.1 75.6133 178.346 75.1133C178.592 74.6094 178.939 74.2227 179.389 73.9531C179.842 73.6797 180.357 73.543 180.936 73.543C181.803 73.543 182.484 73.8164 182.98 74.3633C183.48 74.9102 183.73 75.6855 183.73 76.6895V77.3809H179.693C179.748 77.7949 179.912 78.127 180.186 78.377C180.463 78.627 180.812 78.752
      181.234 78.752C181.887 78.752 182.396 78.5156 182.764 78.043L183.596 78.9746C183.342 79.334 182.998 79.6152 182.564 79.8184C182.131 80.0176 181.65 80.1172 181.123 80.1172ZM180.93 74.9141C180.594 74.9141 180.32 75.0273 180.109 75.2539C179.902 75.4805 179.77 75.8047 179.711 76.2266H182.066V76.0918C182.059 75.7168 181.957 75.4277 181.762 75.2246C181.566 75.0176 181.289 74.9141 180.93 74.9141ZM193.313 72.1016V73.6602H194.397V74.9023H193.313V78.0664C193.313 78.3008 193.358 78.4688 193.448 78.5703C193.537 78.6719 193.709 78.7227 193.963 78.7227C194.151 78.7227 194.317 78.709 194.461 78.6816V79.9648C194.129
      80.0664 193.787 80.1172 193.436 80.1172C192.248 80.1172 191.643 79.5176 191.62 78.3184V74.9023H190.694V73.6602H191.62V72.1016H193.313ZM200.937 79.3555C200.519 79.8633 199.941 80.1172 199.203 80.1172C198.523 80.1172 198.004 79.9219 197.644 79.5312C197.289 79.1406 197.107 78.5684 197.099 77.8145V73.6602H198.793V77.7559C198.793 78.416 199.093 78.7461 199.695 78.7461C200.269 78.7461 200.664 78.5469 200.879 78.1484V73.6602H202.578V80H200.984L200.937 79.3555ZM213.08 78.752C213.393 78.752 213.646 78.666 213.842 78.4941C214.037 78.3223 214.139 78.0938 214.146 77.8086H215.734C215.73 78.2383 215.613 78.6328
      215.383 78.9922C215.152 79.3477 214.836 79.625 214.434 79.8242C214.035 80.0195 213.594 80.1172 213.109 80.1172C212.203 80.1172 211.488 79.8301 210.965 79.2559C210.441 78.6777 210.18 77.8809 210.18 76.8652V76.7539C210.18 75.7773 210.439 74.998 210.959 74.416C211.479 73.834 212.191 73.543 213.098 73.543C213.891 73.543 214.525 73.7695 215.002 74.2227C215.482 74.6719 215.727 75.2715 215.734 76.0215H214.146C214.139 75.6934 214.037 75.4277 213.842 75.2246C213.646 75.0176 213.389 74.9141 213.068 74.9141C212.674 74.9141 212.375 75.0586 212.172 75.3477C211.973 75.6328 211.873 76.0977 211.873 76.7422V76.918C211.873
      77.5703 211.973 78.0391 212.172 78.3242C212.371 78.6094 212.674 78.752 213.08 78.752ZM222.175 80C222.097 79.8477 222.04 79.6582 222.005 79.4316C221.595 79.8887 221.062 80.1172 220.405 80.1172C219.784 80.1172 219.269 79.9375 218.859 79.5781C218.452 79.2188 218.249 78.7656 218.249 78.2188C218.249 77.5469 218.497 77.0312 218.993 76.6719C219.493 76.3125 220.214 76.1309 221.155 76.127H221.935V75.7637C221.935 75.4707 221.859 75.2363 221.706 75.0605C221.558 74.8848 221.321 74.7969 220.997 74.7969C220.712 74.7969 220.488 74.8652 220.323 75.002C220.163 75.1387 220.083 75.3262 220.083 75.5645H218.39C218.39 75.1973
      218.503 74.8574 218.73 74.5449C218.956 74.2324 219.277 73.9883 219.691 73.8125C220.105 73.6328 220.57 73.543 221.085 73.543C221.866 73.543 222.486 73.7402 222.943 74.1348C223.404 74.5254 223.634 75.0762 223.634 75.7871V78.5352C223.638 79.1367 223.722 79.5918 223.886 79.9004V80H222.175ZM220.775 78.8223C221.025 78.8223 221.255 78.7676 221.466 78.6582C221.677 78.5449 221.833 78.3945 221.935 78.207V77.1172H221.302C220.454 77.1172 220.003 77.4102 219.948 77.9961L219.943 78.0957C219.943 78.3066 220.017 78.4805 220.165 78.6172C220.314 78.7539 220.517 78.8223 220.775 78.8223ZM230.168 78.248C230.168 78.041
      230.065 77.8789 229.858 77.7617C229.655 77.6406 229.327 77.5332 228.873 77.4395C227.366 77.123 226.612 76.4824 226.612 75.5176C226.612 74.9551 226.844 74.4863 227.309 74.1113C227.778 73.7324 228.389 73.543 229.143 73.543C229.948 73.543 230.59 73.7324 231.071 74.1113C231.555 74.4902 231.797 74.9824 231.797 75.5879H230.104C230.104 75.3457 230.026 75.1465 229.87 74.9902C229.713 74.8301 229.469 74.75 229.137 74.75C228.852 74.75 228.631 74.8145 228.475 74.9434C228.319 75.0723 228.241 75.2363 228.241 75.4355C228.241 75.623 228.329 75.7754 228.504 75.8926C228.684 76.0059 228.985 76.1055 229.407 76.1914C229.829
      76.2734 230.184 76.3672 230.473 76.4727C231.368 76.8008 231.815 77.3691 231.815 78.1777C231.815 78.7559 231.567 79.2246 231.071 79.584C230.575 79.9395 229.934 80.1172 229.149 80.1172C228.618 80.1172 228.145 80.0234 227.731 79.8359C227.321 79.6445 226.998 79.3848 226.764 79.0566C226.53 78.7246 226.412 78.3672 226.412 77.9844H228.018C228.034 78.2852 228.145 78.5156 228.352 78.6758C228.559 78.8359 228.836 78.916 229.184 78.916C229.508 78.916 229.752 78.8555 229.916 78.7344C230.084 78.6094 230.168 78.4473 230.168 78.248ZM238.384 80C238.306 79.8477 238.25 79.6582 238.214 79.4316C237.804 79.8887 237.271
      80.1172 236.615 80.1172C235.994 80.1172 235.478 79.9375 235.068 79.5781C234.662 79.2188 234.459 78.7656 234.459 78.2188C234.459 77.5469 234.707 77.0312 235.203 76.6719C235.703 76.3125 236.423 76.1309 237.365 76.127H238.144V75.7637C238.144 75.4707 238.068 75.2363 237.916 75.0605C237.767 74.8848 237.531 74.7969 237.207 74.7969C236.921 74.7969 236.697 74.8652 236.533 75.002C236.373 75.1387 236.293 75.3262 236.293 75.5645H234.599C234.599 75.1973 234.713 74.8574 234.939 74.5449C235.166 74.2324 235.486 73.9883 235.9 73.8125C236.314 73.6328 236.779 73.543 237.295 73.543C238.076 73.543 238.695 73.7402 239.152 74.1348C239.613 74.5254 239.843 75.0762 239.843 75.7871V78.5352C239.847 79.1367 239.931 79.5918 240.095 79.9004V80H238.384ZM236.984 78.8223C237.234 78.8223 237.464 78.7676 237.675 78.6582C237.886 78.5449 238.043 78.3945 238.144 78.207V77.1172H237.511C236.664 77.1172 236.213 77.4102 236.158 77.9961L236.152 78.0957C236.152 78.3066 236.226 78.4805 236.375 78.6172C236.523 78.7539 236.726 78.8223 236.984 78.8223Z"
      fill="#000066"
      class="fill-accent"
    />
    <rect
      x="203"
      y="27"
      width="6"
      height="21"
      fill="#000066"
      class="fill-accent"
    />
    <rect
      x="218"
      y="27"
      width="6"
      height="21"
      fill="#000066"
      class="fill-accent"
    />
    <rect
      x="233"
      y="27"
      width="6"
      height="21"
      fill="#000066"
      class="fill-accent"
    />
  </svg>
