<svg width="117" height="55" viewBox="0 0 117 55" fill="none" xmlns="http://www.w3.org/2000/svg">
<rect x="50.0034" y="22.7539" width="66.9966" height="9.48417" fill="#BFCFFF"/>
<rect x="2.11593" width="35.7868" height="35.7868" transform="matrix(0.70531 -0.708899 0.70531 0.708899 0.623544 28.9958)" fill="#001247" stroke="#BFCFFF" stroke-width="3"/>
<path d="M21.2481 30.0632H19.1973V25.7976H15.1983V30.0632H13.1475V20.1101H15.1983V24.1433H19.1973V20.1101H21.2481V30.0632ZM27.6329 30.0632H25.6573V22.448L23.2989 23.1794V21.573L27.421 20.0964H27.6329V30.0632ZM37.5723 25.948C37.5723 27.3243 37.2875 28.377 36.7178 29.1062C36.1482 29.8354 35.3142 30.2 34.2159 30.2C33.1312 30.2 32.3018 29.8422 31.7276 29.1267C31.1534 28.4112 30.8594 27.3858 30.8458 26.0505V24.2185C30.8458 22.8285 31.1329 21.7735 31.7071 21.0535C32.2859 20.3334 33.1176 19.9734 34.2022 19.9734C35.2868 19.9734 36.1163 20.3311 36.6905 21.0466C37.2647 21.7576 37.5587 22.7807 37.5723 24.116V25.948ZM35.5967 23.9382C35.5967 23.1134 35.4828 22.5141 35.2549 22.1404C35.0316 21.7621 34.6807 21.573 34.2022 21.573C33.7374 21.573 33.3933 21.753 33.17 22.113C32.9512 22.4685 32.835 23.0268 32.8214 23.7878V26.2078C32.8214 27.019 32.9307 27.6228 33.1495 28.0193C33.3728 28.4112 33.7283 28.6072 34.2159 28.6072C34.699 28.6072 35.0476 28.4181 35.2618 28.0398C35.476 27.6615 35.5876 27.0828 35.5967 26.3035V23.9382Z" fill="#5555CA"/>
<path d="M58.0185 27.6467L58.3998 25.7964H59.1491L58.4079 28.7021H57.758L57.2075 26.8733L56.6569 28.7021H56.0097L55.2685 25.7964H56.0178L56.3964 27.644L56.9282 25.7964H57.4894L58.0185 27.6467ZM62.0629 27.6467L62.4443 25.7964H63.1935L62.4523 28.7021H61.8024L61.2519 26.8733L60.7014 28.7021H60.0541L59.3129 25.7964H60.0622L60.4409 27.644L60.9726 25.7964H61.5339L62.0629 27.6467ZM66.1074 27.6467L66.4887 25.7964H67.238L66.4968 28.7021H65.8469L65.2963 26.8733L64.7458 28.7021H64.0986L63.3574 25.7964H64.1066L64.4853 27.644L65.017 25.7964H65.5783L66.1074 27.6467ZM67.332 28.3208C67.332 28.1973 67.3731 28.097 67.4555 28.02C67.5397 27.943 67.6444 27.9045 67.7697 27.9045C67.8968 27.9045 68.0016 27.943 68.0839 28.02C68.1681 28.097 68.2101 28.1973 68.2101 28.3208C68.2101 28.4425 68.169 28.5419 68.0866 28.6189C68.0043 28.6941 67.8986 28.7317 67.7697 28.7317C67.6426 28.7317 67.5379 28.6941 67.4555 28.6189C67.3731 28.5419 67.332 28.4425 67.332 28.3208ZM69.6496 26.1133C69.8555 25.8662 70.1142 25.7427 70.4257 25.7427C71.0559 25.7427 71.3755 26.1088 71.3845 26.8411V28.7021H70.6083V26.8625C70.6083 26.696 70.5725 26.5734 70.5009 26.4946C70.4293 26.4141 70.3102 26.3738 70.1437 26.3738C69.9164 26.3738 69.7516 26.4615 69.6496 26.637V28.7021H68.8735V24.5771H69.6496V26.1133ZM72.789 28.7021H72.0102V25.7964H72.789V28.7021ZM71.9645 25.0444C71.9645 24.9281 72.003 24.8323 72.08 24.7571C72.1588 24.6819 72.2653 24.6443 72.3996 24.6443C72.5321 24.6443 72.6377 24.6819 72.7165 24.7571C72.7953 24.8323 72.8347 24.9281 72.8347 25.0444C72.8347 25.1626 72.7944 25.2593 72.7138 25.3345C72.635 25.4097 72.5303 25.4473 72.3996 25.4473C72.2689 25.4473 72.1633 25.4097 72.0827 25.3345C72.0039 25.2593 71.9645 25.1626 71.9645 25.0444ZM76.0466 27.2761C76.0466 27.7237 75.9445 28.0827 75.7404 28.353C75.5381 28.6216 75.2642 28.7559 74.9186 28.7559C74.625 28.7559 74.3878 28.6538 74.207 28.4497V29.8193H73.4308V25.7964H74.1506L74.1774 26.0811C74.3654 25.8555 74.6107 25.7427 74.9133 25.7427C75.2713 25.7427 75.5497 25.8752 75.7485 26.1401C75.9472 26.4051 76.0466 26.7703 76.0466 27.2358V27.2761ZM75.2704 27.2197C75.2704 26.9494 75.2221 26.7408 75.1254 26.594C75.0305 26.4472 74.8918 26.3738 74.7092 26.3738C74.4657 26.3738 74.2983 26.4669 74.207 26.6531V27.8428C74.3019 28.0343 74.471 28.1301 74.7145 28.1301C75.0851 28.1301 75.2704 27.8267 75.2704 27.2197ZM76.4091 27.2224C76.4091 26.9342 76.4646 26.6772 76.5756 26.4517C76.6866 26.2261 76.846 26.0515 77.0536 25.928C77.2631 25.8044 77.5057 25.7427 77.7814 25.7427C78.1735 25.7427 78.4931 25.8626 78.7402 26.1025C78.989 26.3424 79.1278 26.6683 79.1564 27.0801L79.1618 27.2788C79.1618 27.7246 79.0374 28.0827 78.7885 28.353C78.5397 28.6216 78.2057 28.7559 77.7868 28.7559C77.3679 28.7559 77.0331 28.6216 76.7824 28.353C76.5335 28.0845 76.4091 27.7192 76.4091 27.2573V27.2224ZM77.1852 27.2788C77.1852 27.5545 77.2372 27.7658 77.341 27.9126C77.4448 28.0576 77.5934 28.1301 77.7868 28.1301C77.9748 28.1301 78.1216 28.0585 78.2272 27.9153C78.3329 27.7703 78.3857 27.5393 78.3857 27.2224C78.3857 26.9521 78.3329 26.7426 78.2272 26.594C78.1216 26.4454 77.973 26.3711 77.7814 26.3711C77.5917 26.3711 77.4448 26.4454 77.341 26.594C77.2372 26.7408 77.1852 26.9691 77.1852 27.2788ZM80.569 25.082V25.7964H81.0659V26.3657H80.569V27.8159C80.569 27.9233 80.5896 28.0003 80.6308 28.0469C80.672 28.0934 80.7508 28.1167 80.8671 28.1167C80.9531 28.1167 81.0292 28.1104 81.0954 28.0979V28.686C80.9432 28.7326 80.7866 28.7559 80.6254 28.7559C80.0812 28.7559 79.8036 28.481 79.7929 27.9314V26.3657H79.3686V25.7964H79.7929V25.082H80.569ZM82.8356 28.7559C82.4095 28.7559 82.0622 28.6252 81.7936 28.3638C81.5269 28.1024 81.3935 27.7542 81.3935 27.3191V27.2439C81.3935 26.9521 81.4499 26.6916 81.5627 26.4624C81.6755 26.2314 81.8348 26.0542 82.0407 25.9307C82.2484 25.8053 82.4847 25.7427 82.7497 25.7427C83.1472 25.7427 83.4596 25.868 83.687 26.1187C83.9161 26.3693 84.0307 26.7247 84.0307 27.1848V27.5017H82.1804C82.2054 27.6915 82.2806 27.8437 82.4059 27.9583C82.5331 28.0728 82.6933 28.1301 82.8867 28.1301C83.1856 28.1301 83.4193 28.0218 83.5876 27.8052L83.9689 28.2322C83.8526 28.3969 83.695 28.5258 83.4963 28.6189C83.2975 28.7102 83.0773 28.7559 82.8356 28.7559ZM82.747 26.3711C82.593 26.3711 82.4677 26.423 82.371 26.5269C82.2761 26.6307 82.2153 26.7793 82.1884 26.9727H83.268V26.9109C83.2644 26.739 83.2179 26.6065 83.1284 26.5134C83.0388 26.4185 82.9117 26.3711 82.747 26.3711ZM85.6823 28.1301C85.8255 28.1301 85.9419 28.0907 86.0314 28.012C86.121 27.9332 86.1675 27.8285 86.1711 27.6978H86.8989C86.8971 27.8947 86.8434 28.0755 86.7377 28.2402C86.6321 28.4032 86.4871 28.5303 86.3027 28.6216C86.1201 28.7111 85.9177 28.7559 85.6957 28.7559C85.2804 28.7559 84.9527 28.6243 84.7128 28.3611C84.4729 28.0961 84.353 27.7309 84.353 27.2654V27.2144C84.353 26.7668 84.472 26.4096 84.7101 26.1428C84.9483 25.8761 85.275 25.7427 85.6904 25.7427C86.0538 25.7427 86.3447 25.8465 86.5632 26.0542C86.7834 26.2601 86.8953 26.5349 86.8989 26.8787H86.1711C86.1675 26.7283 86.121 26.6065 86.0314 26.5134C85.9419 26.4185 85.8238 26.3711 85.6769 26.3711C85.4961 26.3711 85.3592 26.4373 85.2661 26.5698C85.1747 26.7005 85.1291 26.9136 85.1291 27.209V27.2896C85.1291 27.5885 85.1747 27.8034 85.2661 27.9341C85.3574 28.0648 85.4961 28.1301 85.6823 28.1301ZM89.0258 28.7021C88.99 28.6323 88.9641 28.5455 88.9479 28.4417C88.7599 28.6511 88.5156 28.7559 88.2148 28.7559C87.9301 28.7559 87.6938 28.6735 87.5058 28.5088C87.3196 28.3441 87.2265 28.1364 87.2265 27.8857C87.2265 27.5778 87.3402 27.3415 87.5676 27.1768C87.7967 27.012 88.1271 26.9288 88.5585 26.927H88.9157V26.7605C88.9157 26.6262 88.8808 26.5188 88.811 26.4382C88.7429 26.3577 88.6346 26.3174 88.486 26.3174C88.3553 26.3174 88.2524 26.3487 88.1772 26.4114C88.1038 26.474 88.0671 26.56 88.0671 26.6692H87.291C87.291 26.5009 87.3429 26.3451 87.4467 26.2019C87.5506 26.0587 87.6974 25.9468 87.8871 25.8662C88.0769 25.7839 88.29 25.7427 88.5263 25.7427C88.8844 25.7427 89.1682 25.8331 89.3776 26.0139C89.5889 26.193 89.6945 26.4454 89.6945 26.7712V28.0308C89.6963 28.3065 89.7348 28.5151 89.81 28.6565V28.7021H89.0258ZM88.384 28.1624C88.4986 28.1624 88.6042 28.1373 88.7009 28.0872C88.7975 28.0352 88.8692 27.9663 88.9157 27.8804V27.3809H88.6257C88.2372 27.3809 88.0304 27.5151 88.0053 27.7837L88.0026 27.8293C88.0026 27.926 88.0366 28.0057 88.1047 28.0684C88.1727 28.131 88.2658 28.1624 88.384 28.1624ZM92.1437 28.7021H91.3676V25.7104L90.4411 25.9978V25.3667L92.0605 24.7866H92.1437V28.7021ZM96.0485 27.0854C96.0485 27.6261 95.9366 28.0397 95.7128 28.3262C95.489 28.6126 95.1614 28.7559 94.7299 28.7559C94.3038 28.7559 93.978 28.6153 93.7524 28.3342C93.5268 28.0531 93.4113 27.6503 93.4059 27.1257V26.406C93.4059 25.8599 93.5187 25.4455 93.7443 25.1626C93.9717 24.8797 94.2984 24.7383 94.7245 24.7383C95.1507 24.7383 95.4765 24.8788 95.7021 25.1599C95.9277 25.4392 96.0432 25.8411 96.0485 26.3657V27.0854ZM95.2724 26.2959C95.2724 25.9718 95.2276 25.7364 95.1381 25.5896C95.0504 25.441 94.9125 25.3667 94.7245 25.3667C94.5419 25.3667 94.4068 25.4374 94.319 25.5789C94.2331 25.7185 94.1874 25.9378 94.1821 26.2368V27.1875C94.1821 27.5062 94.225 27.7434 94.311 27.8992C94.3987 28.0531 94.5384 28.1301 94.7299 28.1301C94.9197 28.1301 95.0567 28.0558 95.1408 27.9072C95.225 27.7586 95.2688 27.5312 95.2724 27.2251V26.2959ZM96.6474 28.3208C96.6474 28.1973 96.6886 28.097 96.7709 28.02C96.8551 27.943 96.9598 27.9045 97.0851 27.9045C97.2123 27.9045 97.317 27.943 97.3994 28.02C97.4835 28.097 97.5256 28.1973 97.5256 28.3208C97.5256 28.4425 97.4844 28.5419 97.402 28.6189C97.3197 28.6941 97.2141 28.7317 97.0851 28.7317C96.958 28.7317 96.8533 28.6941 96.7709 28.6189C96.6886 28.5419 96.6474 28.4425 96.6474 28.3208ZM99.5451 28.7559C99.119 28.7559 98.7717 28.6252 98.5031 28.3638C98.2363 28.1024 98.103 27.7542 98.103 27.3191V27.2439C98.103 26.9521 98.1594 26.6916 98.2722 26.4624C98.3849 26.2314 98.5443 26.0542 98.7502 25.9307C98.9579 25.8053 99.1942 25.7427 99.4592 25.7427C99.8566 25.7427 100.169 25.868 100.396 26.1187C100.626 26.3693 100.74 26.7247 100.74 27.1848V27.5017H98.8898C98.9149 27.6915 98.9901 27.8437 99.1154 27.9583C99.2425 28.0728 99.4028 28.1301 99.5961 28.1301C99.8951 28.1301 100.129 28.0218 100.297 27.8052L100.678 28.2322C100.562 28.3969 100.404 28.5258 100.206 28.6189C100.007 28.7102 99.7868 28.7559 99.5451 28.7559ZM99.4565 26.3711C99.3025 26.3711 99.1772 26.423 99.0805 26.5269C98.9856 26.6307 98.9247 26.7793 98.8979 26.9727H99.9775V26.9109C99.9739 26.739 99.9273 26.6065 99.8378 26.5134C99.7483 26.4185 99.6212 26.3711 99.4565 26.3711ZM102.757 27.8992C102.757 27.8043 102.71 27.73 102.615 27.6763C102.522 27.6208 102.371 27.5715 102.164 27.5286C101.472 27.3835 101.127 27.0899 101.127 26.6477C101.127 26.3899 101.233 26.175 101.446 26.0032C101.661 25.8295 101.942 25.7427 102.287 25.7427C102.656 25.7427 102.95 25.8295 103.171 26.0032C103.393 26.1768 103.504 26.4024 103.504 26.6799H102.727C102.727 26.5689 102.692 26.4776 102.62 26.406C102.548 26.3326 102.437 26.2959 102.284 26.2959C102.154 26.2959 102.053 26.3254 101.981 26.3845C101.909 26.4436 101.873 26.5188 101.873 26.6101C101.873 26.696 101.914 26.7659 101.994 26.8196C102.077 26.8715 102.215 26.9172 102.408 26.9565C102.601 26.9941 102.764 27.0371 102.897 27.0854C103.307 27.2358 103.512 27.4963 103.512 27.8669C103.512 28.1319 103.398 28.3468 103.171 28.5115C102.943 28.6744 102.65 28.7559 102.29 28.7559C102.046 28.7559 101.83 28.7129 101.64 28.627C101.452 28.5392 101.304 28.4202 101.197 28.2698C101.089 28.1176 101.036 27.9538 101.036 27.7783H101.771C101.779 27.9162 101.83 28.0218 101.924 28.0952C102.019 28.1686 102.147 28.2053 102.306 28.2053C102.454 28.2053 102.566 28.1776 102.642 28.1221C102.719 28.0648 102.757 27.9905 102.757 27.8992Z" fill="#001247"/>
<path d="M53.8499 37.7122H53.1418V33.9622H53.8499V37.7122ZM56.5641 37.7122C56.5316 37.6487 56.508 37.5697 56.4933 37.4753C56.3224 37.6658 56.1002 37.761 55.8268 37.761C55.568 37.761 55.3532 37.6861 55.1823 37.5364C55.013 37.3866 54.9284 37.1978 54.9284 36.97C54.9284 36.69 55.0317 36.4752 55.2384 36.3254C55.4468 36.1757 55.7471 36.1 56.1393 36.0984H56.464V35.947C56.464 35.825 56.4323 35.7273 56.3688 35.6541C56.3069 35.5808 56.2085 35.5442 56.0734 35.5442C55.9546 35.5442 55.861 35.5727 55.7926 35.6296C55.7259 35.6866 55.6925 35.7647 55.6925 35.864H54.987C54.987 35.711 55.0342 35.5694 55.1286 35.4392C55.223 35.309 55.3564 35.2073 55.529 35.134C55.7015 35.0592 55.8952 35.0217 56.11 35.0217C56.4355 35.0217 56.6935 35.1039 56.8839 35.2683C57.076 35.4311 57.172 35.6606 57.172 35.9568V37.1018C57.1736 37.3525 57.2086 37.5421 57.277 37.6707V37.7122H56.5641ZM55.9806 37.2214C56.0848 37.2214 56.1808 37.1986 56.2687 37.1531C56.3566 37.1059 56.4217 37.0432 56.464 36.9651V36.511H56.2003C55.8472 36.511 55.6592 36.6331 55.6364 36.8772L55.6339 36.9187C55.6339 37.0066 55.6649 37.079 55.7267 37.136C55.7886 37.193 55.8732 37.2214 55.9806 37.2214ZM60.9038 37.7122H60.1958V33.9622H60.9038V37.7122ZM62.8319 37.7122H62.1239V33.9622H62.8319V37.7122ZM65.5461 37.7122C65.5136 37.6487 65.49 37.5697 65.4753 37.4753C65.3044 37.6658 65.0823 37.761 64.8088 37.761C64.55 37.761 64.3352 37.6861 64.1643 37.5364C63.995 37.3866 63.9104 37.1978 63.9104 36.97C63.9104 36.69 64.0138 36.4752 64.2205 36.3254C64.4288 36.1757 64.7291 36.1 65.1213 36.0984H65.446V35.947C65.446 35.825 65.4143 35.7273 65.3508 35.6541C65.289 35.5808 65.1905 35.5442 65.0554 35.5442C64.9366 35.5442 64.843 35.5727 64.7747 35.6296C64.7079 35.6866 64.6746 35.7647 64.6746 35.864H63.969C63.969 35.711 64.0162 35.5694 64.1106 35.4392C64.205 35.309 64.3385 35.2073 64.511 35.134C64.6835 35.0592 64.8772 35.0217 65.092 35.0217C65.4176 35.0217 65.6755 35.1039 65.866 35.2683C66.058 35.4311 66.1541 35.6606 66.1541 35.9568V37.1018C66.1557 37.3525 66.1907 37.5421 66.259 37.6707V37.7122H65.5461ZM64.9626 37.2214C65.0668 37.2214 65.1628 37.1986 65.2507 37.1531C65.3386 37.1059 65.4037 37.0432 65.446 36.9651V36.511H65.1824C64.8292 36.511 64.6412 36.6331 64.6184 36.8772L64.616 36.9187C64.616 37.0066 64.6469 37.079 64.7087 37.136C64.7706 37.193 64.8552 37.2214 64.9626 37.2214ZM68.2458 36.8503L68.7365 35.0706H69.4738L68.5827 37.7122H67.9088L67.0177 35.0706H67.755L68.2458 36.8503ZM71.5679 37.761C71.1806 37.761 70.8648 37.6422 70.6207 37.4045C70.3781 37.1669 70.2569 36.8503 70.2569 36.4548V36.3865C70.2569 36.1212 70.3082 35.8844 70.4107 35.676C70.5132 35.4661 70.6581 35.3049 70.8453 35.1926C71.0341 35.0787 71.2489 35.0217 71.4898 35.0217C71.8511 35.0217 72.1351 35.1357 72.3418 35.3635C72.5502 35.5914 72.6543 35.9145 72.6543 36.3328V36.6208H70.9722C70.995 36.7934 71.0634 36.9317 71.1773 37.0359C71.2929 37.1401 71.4385 37.1921 71.6143 37.1921C71.8861 37.1921 72.0985 37.0937 72.2515 36.8967L72.5982 37.2849C72.4924 37.4347 72.3492 37.5518 72.1685 37.6365C71.9878 37.7195 71.7876 37.761 71.5679 37.761ZM71.4874 35.593C71.3474 35.593 71.2334 35.6402 71.1456 35.7346C71.0593 35.829 71.004 35.9641 70.9795 36.1399H71.961V36.0837C71.9577 35.9275 71.9154 35.807 71.834 35.7224C71.7527 35.6361 71.6371 35.593 71.4874 35.593ZM75.3924 36.3718C75.3924 35.96 75.4844 35.6321 75.6683 35.3879C75.8539 35.1438 76.1069 35.0217 76.4276 35.0217C76.6847 35.0217 76.8972 35.1178 77.0648 35.3098V33.9622H77.7728V37.7122H77.1356L77.1014 37.4314C76.9256 37.6511 76.6994 37.761 76.4227 37.761C76.1118 37.761 75.862 37.6389 75.6732 37.3948C75.486 37.149 75.3924 36.808 75.3924 36.3718ZM76.098 36.4231C76.098 36.6705 76.1411 36.8601 76.2274 36.9919C76.3137 37.1238 76.439 37.1897 76.6034 37.1897C76.8215 37.1897 76.9753 37.0977 77.0648 36.9138V35.8713C76.9769 35.6874 76.8247 35.5955 76.6083 35.5955C76.2681 35.5955 76.098 35.8713 76.098 36.4231ZM80.1355 37.761C79.7481 37.761 79.4324 37.6422 79.1882 37.4045C78.9457 37.1669 78.8245 36.8503 78.8245 36.4548V36.3865C78.8245 36.1212 78.8757 35.8844 78.9783 35.676C79.0808 35.4661 79.2257 35.3049 79.4128 35.1926C79.6016 35.0787 79.8165 35.0217 80.0574 35.0217C80.4187 35.0217 80.7027 35.1357 80.9094 35.3635C81.1178 35.5914 81.2219 35.9145 81.2219 36.3328V36.6208H79.5398C79.5626 36.7934 79.6309 36.9317 79.7449 37.0359C79.8604 37.1401 80.0061 37.1921 80.1819 37.1921C80.4537 37.1921 80.6661 37.0937 80.8191 36.8967L81.1658 37.2849C81.06 37.4347 80.9167 37.5518 80.7361 37.6365C80.5554 37.7195 80.3552 37.761 80.1355 37.761ZM80.0549 35.593C79.915 35.593 79.801 35.6402 79.7131 35.7346C79.6269 35.829 79.5715 35.9641 79.5471 36.1399H80.5286V36.0837C80.5253 35.9275 80.483 35.807 80.4016 35.7224C80.3202 35.6361 80.2047 35.593 80.0549 35.593ZM84.9146 34.4211V35.0706H85.3663V35.5881H84.9146V36.9065C84.9146 37.0042 84.9333 37.0741 84.9708 37.1165C85.0082 37.1588 85.0798 37.1799 85.1856 37.1799C85.2637 37.1799 85.3329 37.1742 85.3931 37.1628V37.6975C85.2548 37.7398 85.1124 37.761 84.9659 37.761C84.4711 37.761 84.2188 37.5111 84.209 37.0115V35.5881H83.8233V35.0706H84.209V34.4211H84.9146ZM87.9414 37.4436C87.7672 37.6552 87.5263 37.761 87.2187 37.761C86.9355 37.761 86.719 37.6796 86.5693 37.5168C86.4212 37.3541 86.3455 37.1156 86.3422 36.8015V35.0706H87.0478V36.7771C87.0478 37.0522 87.1731 37.1897 87.4238 37.1897C87.663 37.1897 87.8274 37.1067 87.9169 36.9407V35.0706H88.625V37.7122H87.9609L87.9414 37.4436ZM92.7009 37.1921C92.8311 37.1921 92.9369 37.1563 93.0183 37.0847C93.0997 37.0131 93.142 36.9179 93.1453 36.7991H93.8069C93.8053 36.9781 93.7564 37.1425 93.6604 37.2922C93.5644 37.4403 93.4325 37.5559 93.2649 37.6389C93.0989 37.7203 92.915 37.761 92.7131 37.761C92.3355 37.761 92.0377 37.6414 91.8196 37.4021C91.6015 37.1612 91.4924 36.8292 91.4924 36.406V36.3596C91.4924 35.9527 91.6007 35.628 91.8171 35.3855C92.0336 35.143 92.3306 35.0217 92.7083 35.0217C93.0387 35.0217 93.3031 35.1161 93.5017 35.3049C93.7019 35.4921 93.8036 35.7419 93.8069 36.0544H93.1453C93.142 35.9177 93.0997 35.807 93.0183 35.7224C92.9369 35.6361 92.8295 35.593 92.696 35.593C92.5317 35.593 92.4071 35.6532 92.3225 35.7737C92.2395 35.8925 92.198 36.0862 92.198 36.3547V36.428C92.198 36.6998 92.2395 36.8951 92.3225 37.0139C92.4055 37.1327 92.5317 37.1921 92.7009 37.1921ZM96.3405 37.7122C96.3079 37.6487 96.2843 37.5697 96.2697 37.4753C96.0988 37.6658 95.8766 37.761 95.6032 37.761C95.3444 37.761 95.1295 37.6861 94.9586 37.5364C94.7894 37.3866 94.7047 37.1978 94.7047 36.97C94.7047 36.69 94.8081 36.4752 95.0148 36.3254C95.2231 36.1757 95.5234 36.1 95.9157 36.0984H96.2404V35.947C96.2404 35.825 96.2086 35.7273 96.1452 35.6541C96.0833 35.5808 95.9848 35.5442 95.8498 35.5442C95.7309 35.5442 95.6374 35.5727 95.569 35.6296C95.5023 35.6866 95.4689 35.7647 95.4689 35.864H94.7633C94.7633 35.711 94.8105 35.5694 94.9049 35.4392C94.9993 35.309 95.1328 35.2073 95.3053 35.134C95.4778 35.0592 95.6715 35.0217 95.8864 35.0217C96.2119 35.0217 96.4699 35.1039 96.6603 35.2683C96.8524 35.4311 96.9484 35.6606 96.9484 35.9568V37.1018C96.95 37.3525 96.985 37.5421 97.0534 37.6707V37.7122H96.3405ZM95.757 37.2214C95.8611 37.2214 95.9572 37.1986 96.0451 37.1531C96.133 37.1059 96.1981 37.0432 96.2404 36.9651V36.511H95.9767C95.6235 36.511 95.4355 36.6331 95.4127 36.8772L95.4103 36.9187C95.4103 37.0066 95.4412 37.079 95.5031 37.136C95.5649 37.193 95.6496 37.2214 95.757 37.2214ZM99.521 36.9822C99.521 36.8959 99.4779 36.8284 99.3917 36.7795C99.307 36.7291 99.1703 36.6843 98.9815 36.6453C98.3532 36.5134 98.0391 36.2465 98.0391 35.8445C98.0391 35.6101 98.136 35.4148 98.3296 35.2585C98.525 35.1007 98.7797 35.0217 99.0938 35.0217C99.4291 35.0217 99.6968 35.1007 99.897 35.2585C100.099 35.4164 100.2 35.6215 100.2 35.8738H99.4942C99.4942 35.7729 99.4616 35.6899 99.3965 35.6248C99.3314 35.558 99.2297 35.5247 99.0914 35.5247C98.9725 35.5247 98.8806 35.5515 98.8155 35.6052C98.7504 35.6589 98.7178 35.7273 98.7178 35.8103C98.7178 35.8884 98.7544 35.9519 98.8277 36.0007C98.9026 36.0479 99.0279 36.0894 99.2037 36.1252C99.3794 36.1594 99.5276 36.1985 99.648 36.2424C100.021 36.3792 100.207 36.616 100.207 36.9529C100.207 37.1938 100.104 37.3891 99.897 37.5388C99.6903 37.6869 99.4234 37.761 99.0962 37.761C98.8749 37.761 98.6779 37.7219 98.5054 37.6438C98.3345 37.564 98.2002 37.4558 98.1026 37.3191C98.0049 37.1807 97.9561 37.0318 97.9561 36.8723H98.625C98.6316 36.9976 98.6779 37.0937 98.7642 37.1604C98.8505 37.2271 98.966 37.2605 99.1109 37.2605C99.246 37.2605 99.3477 37.2353 99.4161 37.1848C99.4861 37.1327 99.521 37.0652 99.521 36.9822ZM102.794 37.7122C102.762 37.6487 102.738 37.5697 102.724 37.4753C102.553 37.6658 102.331 37.761 102.057 37.761C101.798 37.761 101.583 37.6861 101.413 37.5364C101.243 37.3866 101.159 37.1978 101.159 36.97C101.159 36.69 101.262 36.4752 101.469 36.3254C101.677 36.1757 101.977 36.1 102.37 36.0984H102.694V35.947C102.694 35.825 102.663 35.7273 102.599 35.6541C102.537 35.5808 102.439 35.5442 102.304 35.5442C102.185 35.5442 102.091 35.5727 102.023 35.6296C101.956 35.6866 101.923 35.7647 101.923 35.864H101.217C101.217 35.711 101.264 35.5694 101.359 35.4392C101.453 35.309 101.587 35.2073 101.759 35.134C101.932 35.0592 102.125 35.0217 102.34 35.0217C102.666 35.0217 102.924 35.1039 103.114 35.2683C103.306 35.4311 103.402 35.6606 103.402 35.9568V37.1018C103.404 37.3525 103.439 37.5421 103.507 37.6707V37.7122H102.794ZM102.211 37.2214C102.315 37.2214 102.411 37.1986 102.499 37.1531C102.587 37.1059 102.652 37.0432 102.694 36.9651V36.511H102.431C102.077 36.511 101.889 36.6331 101.867 36.8772L101.864 36.9187C101.864 37.0066 101.895 37.079 101.957 37.136C102.019 37.193 102.103 37.2214 102.211 37.2214Z" fill="#BFCFFF"/>
<rect x="95.7687" y="12.7954" width="2.83084" height="9.95838" fill="#BFCFFF"/>
<rect x="102.846" y="12.7954" width="2.83085" height="9.95838" fill="#BFCFFF"/>
<rect x="109.923" y="12.7954" width="2.83085" height="9.95838" fill="#BFCFFF"/>
</svg>
