<svg
    id="b582dbfc-ed60-4217-aa06-1e10ec960023"
    xmlns:dc="http://purl.org/dc/elements/1.1/"
    xmlns:cc="http://creativecommons.org/ns#"
    xmlns:rdf="http://www.w3.org/1999/02/22-rdf-syntax-ns#"
    xmlns:svg="http://www.w3.org/2000/svg"
    xmlns="http://www.w3.org/2000/svg"
    xmlns:xlink="http://www.w3.org/1999/xlink"
    xmlns:sodipodi="http://sodipodi.sourceforge.net/DTD/sodipodi-0.dtd"
    xmlns:inkscape="http://www.inkscape.org/namespaces/inkscape"
    data-name="Layer 1"
    viewBox="0 0 845.30066 497.24547"
    version="1.1"
    sodipodi:docname="house_woman.svg"
    inkscape:version="1.0.2 (e86c870879, 2021-01-15)"
  >
    <metadata id="metadata266">
      <rdf:RDF>
        <cc:Work rdf:about="">
          <dc:format>image/svg+xml</dc:format>
          <dc:type rdf:resource="http://purl.org/dc/dcmitype/StillImage" />
          <dc:title>business_shop</dc:title>
        </cc:Work>
      </rdf:RDF>
    </metadata>
    <defs id="defs264">
      <linearGradient
        id="5b26331d-1310-4294-a782-4ee218ce8a93"
        x1="209.98"
        y1="290.82999"
        x2="209.98"
        gradientUnits="userSpaceOnUse"
      >
        <stop id="stop846" offset="0" stop-color="gray" stop-opacity="0.25" />
        <stop
          id="stop848"
          offset="0.54"
          stop-color="gray"
          stop-opacity="0.12"
        />
        <stop id="stop850" offset="1" stop-color="gray" stop-opacity="0.1" />
      </linearGradient>
      <linearGradient
        id="1766677a-11bf-41c4-a6a5-863d2cac0045"
        x1="356.48001"
        y1="409.10999"
        x2="356.48001"
        y2="118.28"
        xlink:href="#5b26331d-1310-4294-a782-4ee218ce8a93"
      />
      <linearGradient
        id="aae5fb14-dd79-43d0-b7e4-6e2579fdfd08"
        x1="502.98001"
        y1="527.39001"
        x2="502.98001"
        y2="236.57001"
        xlink:href="#5b26331d-1310-4294-a782-4ee218ce8a93"
      />
      <linearGradient
        id="66874382-e7df-403e-944e-b16abddffc78"
        x1="912.15997"
        y1="688.94"
        x2="912.15997"
        y2="281.79999"
        xlink:href="#5b26331d-1310-4294-a782-4ee218ce8a93"
      />
    </defs>
    <sodipodi:namedview
      id="namedview262"
      pagecolor="#ffffff"
      bordercolor="#666666"
      borderopacity="1"
      objecttolerance="10"
      gridtolerance="10"
      guidetolerance="10"
      inkscape:pageopacity="0"
      inkscape:pageshadow="2"
      inkscape:window-width="1920"
      inkscape:window-height="1001"
      showgrid="false"
      inkscape:zoom="0.83492376"
      inkscape:cx="672.21426"
      inkscape:cy="243.66961"
      inkscape:window-x="-9"
      inkscape:window-y="-9"
      inkscape:window-maximized="1"
      inkscape:current-layer="g1028"
      inkscape:document-rotation="0"
    />
    <title id="title139">business_shop</title>
    <ellipse
      id="ellipse141"
      cx="369.37753"
      cy="469.06525"
      rx="360.7067"
      ry="28.18021"
      fill="#3f3d56"
      style="stroke-width: 0.867083"
    />
    <path
      id="path145"
      d="m 566.21247,76.38429 c 0,0 2.25383,30.42682 2.25383,31.55376 0,1.12694 -15.77688,78.88443 -15.77688,78.88443 0,0 -22.53841,42.82296 0,41.69604 22.53841,-1.12692 15.77688,-40.5691 15.77688,-40.5691 l 23.66531,-65.36136 -10.14228,-46.20374 z"
      fill="#a0616a"
      style="stroke-width: 0.867083"
    />
    <rect
      id="rect165"
      x="128.74084"
      y="154.27554"
      width="447.81628"
      height="314.57632"
      fill="#f2f2f2"
      style="stroke-width: 0.867083"
    />
    <rect
      id="rect167"
      x="166.43799"
      y="274.30081"
      width="112.44154"
      height="196.28523"
      fill="#3f3d56"
      style="stroke-width: 0.867083"
    />
    <rect
      id="rect169"
      x="187.23643"
      y="286.0762"
      width="30.288662"
      height="28.235193"
      fill="#f2f2f2"
      style="stroke-width: 0.867083"
    />
    <rect
      id="rect171"
      x="227.79245"
      y="286.0762"
      width="30.288662"
      height="28.235193"
      fill="#f2f2f2"
      style="stroke-width: 0.867083"
    />
    <rect
      id="rect173"
      x="187.23643"
      y="324.57874"
      width="30.288662"
      height="29.26193"
      fill="#f2f2f2"
      style="stroke-width: 0.867083"
    />
    <rect
      id="rect175"
      x="227.79245"
      y="324.57874"
      width="30.288662"
      height="29.26193"
      fill="#f2f2f2"
      style="stroke-width: 0.867083"
    />
    <circle
      id="circle177"
      cx="264.58063"
      cy="385.65814"
      r="7.1494579"
      fill="#6c63ff"
      class="fill-logoInv3"
      style="stroke-width: 0.867083"
    />
    <rect
      id="rect179"
      x="316.57669"
      y="255.66794"
      width="222.28328"
      height="186.53595"
      fill="#3f3d56"
      style="stroke-width: 0.867083"
    />
    <polygon
      id="polygon181"
      points="155.337,219.117 164.654,199.628 175.455,177.051 667.407,177.051 673.786,199.628 679.295,219.117 686.499,244.603 692.008,264.092 716.602,351.134 92.199,351.134 133.831,264.092 143.148,244.603 "
      fill="#3f3d56"
      transform="matrix(0.86708338,0,0,0.86708338,2,-90.96337)"
    />
    <rect
      id="rect183"
      x="324.3761"
      y="333.01215"
      width="7.7994151"
      height="48.096378"
      fill="#6c63ff"
      class="fill-logoInv3"
      style="stroke-width: 0.867083"
    />
    <rect
      id="rect185"
      x="324.3761"
      y="340.16156"
      width="7.7994151"
      height="5.8495612"
      fill="#f2f2f2"
      style="stroke-width: 0.867083"
    />
    <rect
      id="rect187"
      x="324.3761"
      y="368.1095"
      width="7.7994151"
      height="5.8495612"
      fill="#f2f2f2"
      style="stroke-width: 0.867083"
    />
    <rect
      id="rect189"
      x="336.07523"
      y="333.01215"
      width="18.848579"
      height="48.096378"
      fill="#6c63ff"
      class="fill-logoInv3"
      style="stroke-width: 0.867083"
    />
    <rect
      id="rect191"
      x="336.07523"
      y="340.16156"
      width="18.848579"
      height="5.8495612"
      fill="#f2f2f2"
      style="stroke-width: 0.867083"
    />
    <rect
      id="rect193"
      x="336.07523"
      y="368.1095"
      width="18.848579"
      height="5.8495612"
      fill="#f2f2f2"
      style="stroke-width: 0.867083"
    />
    <rect
      id="rect195"
      x="359.47345"
      y="333.01215"
      width="7.7994151"
      height="48.096378"
      fill="#6c63ff"
      class="fill-logoInv3"
      style="stroke-width: 0.867083"
    />
    <rect
      id="rect197"
      x="359.47345"
      y="340.16156"
      width="7.7994151"
      height="5.8495612"
      fill="#f2f2f2"
      style="stroke-width: 0.867083"
    />
    <rect
      id="rect199"
      x="359.47345"
      y="368.1095"
      width="7.7994151"
      height="5.8495612"
      fill="#f2f2f2"
      style="stroke-width: 0.867083"
    />
    <rect
      id="rect201"
      x="371.17261"
      y="333.01215"
      width="7.7994151"
      height="48.096378"
      fill="#6c63ff"
      class="fill-logoInv3"
      style="stroke-width: 0.867083"
    />
    <rect
      id="rect203"
      x="371.17261"
      y="340.16156"
      width="7.7994151"
      height="5.8495612"
      fill="#f2f2f2"
      style="stroke-width: 0.867083"
    />
    <rect
      id="rect205"
      x="371.17261"
      y="368.1095"
      width="7.7994151"
      height="5.8495612"
      fill="#f2f2f2"
      style="stroke-width: 0.867083"
    />
    <rect
      id="rect207"
      x="236.32565"
      y="448.09161"
      width="7.7994151"
      height="48.096378"
      transform="rotate(-20.65411)"
      fill="#6c63ff"
      class="fill-logoInv3"
      style="stroke-width: 0.867083"
    />
    <rect
      id="rect209"
      x="236.32568"
      y="455.24109"
      width="7.7994151"
      height="5.8495612"
      transform="rotate(-20.65411)"
      fill="#f2f2f2"
      style="stroke-width: 0.867083"
    />
    <rect
      id="rect211"
      x="236.32564"
      y="483.18896"
      width="7.7994151"
      height="5.8495612"
      transform="rotate(-20.65411)"
      fill="#f2f2f2"
      style="stroke-width: 0.867083"
    />
    <rect
      id="rect213"
      x="512.86194"
      y="333.01215"
      width="18.848579"
      height="48.096378"
      fill="#6c63ff"
      class="fill-logoInv3"
      style="stroke-width: 0.867083"
    />
    <rect
      id="rect215"
      x="512.86194"
      y="340.16156"
      width="18.848579"
      height="5.8495612"
      fill="#f2f2f2"
      style="stroke-width: 0.867083"
    />
    <rect
      id="rect217"
      x="512.86194"
      y="368.1095"
      width="18.848579"
      height="5.8495612"
      fill="#f2f2f2"
      style="stroke-width: 0.867083"
    />
    <rect
      id="rect219"
      x="500.51288"
      y="333.01215"
      width="7.7994151"
      height="48.096378"
      fill="#6c63ff"
      class="fill-logoInv3"
      style="stroke-width: 0.867083"
    />
    <rect
      id="rect221"
      x="500.51288"
      y="340.16156"
      width="7.7994151"
      height="5.8495612"
      fill="#f2f2f2"
      style="stroke-width: 0.867083"
    />
    <rect
      id="rect223"
      x="500.51288"
      y="368.1095"
      width="7.7994151"
      height="5.8495612"
      fill="#f2f2f2"
      style="stroke-width: 0.867083"
    />
    <rect
      id="rect225"
      x="488.81375"
      y="333.01215"
      width="7.7994151"
      height="48.096378"
      fill="#6c63ff"
      class="fill-logoInv3"
      style="stroke-width: 0.867083"
    />
    <rect
      id="rect227"
      x="488.81375"
      y="340.16156"
      width="7.7994151"
      height="5.8495612"
      fill="#f2f2f2"
      style="stroke-width: 0.867083"
    />
    <rect
      id="rect229"
      x="488.81375"
      y="368.1095"
      width="7.7994151"
      height="5.8495612"
      fill="#f2f2f2"
      style="stroke-width: 0.867083"
    />
    <rect
      id="rect231"
      x="-190.09784"
      y="567.88531"
      width="48.096378"
      height="7.7994151"
      transform="rotate(-69.34589)"
      fill="#6c63ff"
      class="fill-logoInv3"
      style="stroke-width: 0.867083"
    />
    <rect
      id="rect233"
      x="-155.00046"
      y="567.88531"
      width="5.8495612"
      height="7.7994151"
      transform="rotate(-69.34589)"
      fill="#f2f2f2"
      style="stroke-width: 0.867083"
    />
    <rect
      id="rect235"
      x="-182.94836"
      y="567.88538"
      width="5.8495612"
      height="7.7994151"
      transform="rotate(-69.34589)"
      fill="#f2f2f2"
      style="stroke-width: 0.867083"
    />
    <rect
      id="rect237"
      x="316.57669"
      y="381.10852"
      width="222.28328"
      height="4.5496559"
      fill="#f2f2f2"
      style="stroke-width: 0.867083"
    />
    <rect
      id="rect239"
      x="413.41943"
      y="333.01215"
      width="40.946918"
      height="48.096378"
      fill="#6c63ff"
      class="fill-logoInv3"
      style="stroke-width: 0.867083"
    />
    <rect
      id="rect241"
      x="423.49365"
      y="343.41132"
      width="20.798435"
      height="9.0993118"
      fill="#f2f2f2"
      style="stroke-width: 0.867083"
    />
    <rect
      id="rect243"
      x="425.76849"
      y="255.66794"
      width="3.8997076"
      height="41.59687"
      fill="#f2f2f2"
      style="stroke-width: 0.867083"
    />
    <circle
      id="circle245"
      cx="427.71832"
      cy="297.2648"
      r="6.4995098"
      fill="#f2f2f2"
      style="stroke-width: 0.867083"
    />
    <polygon
      id="polygon247"
      points="679.295,219.117 155.337,219.117 164.654,199.628 673.786,199.628 "
      fill="#6c63ff"
      class="fill-logoInv3"
      transform="matrix(0.86708338,0,0,0.86708338,2,-90.96337)"
    />
    <polygon
      id="polygon249"
      points="692.008,264.092 133.831,264.092 143.148,244.603 686.499,244.603 "
      fill="#6c63ff"
      class="fill-logoInv3"
      transform="matrix(0.86708338,0,0,0.86708338,2,-90.96337)"
    />
    <circle
      id="circle255"
      cx="88.708336"
      cy="244.05716"
      r="86.708336"
      fill="#6c63ff"
      class="fill-logoInv3"
      style="stroke-width: 0.867083"
    />
    <circle
      id="circle257"
      cx="88.708336"
      cy="244.05716"
      r="74.569168"
      opacity="0.1"
      style="stroke-width: 0.867083"
    />
    <g
      id="g316"
      transform="matrix(0.00886131,0,0,-0.00886131,28.33667,300.14387)"
      fill="#000000"
      stroke="none"
      style="fill: #ffffff"
    >
      <path
        id="path298"
        d="M 8470,12223 C 6586,12162 4862,11190 3837,9609 3660,9336 3467,8968 3337,8655 l -25,-60 -1019,-5 c -782,-4 -1023,-8 -1040,-17 -24,-14 -14,11 -275,-688 C 657,7023 599,6861 598,6828 c -1,-22 6,-38 24,-53 24,-21 38,-22 268,-28 134,-4 563,-8 954,-9 391,-1 648,-5 571,-8 -138,-6 -139,-6 -40,-8 98,-3 243,-21 317,-40 53,-14 159,-66 185,-91 13,-12 24,-18 24,-14 5,27 17,-123 19,-232 1,-71 5,-175 9,-231 l 6,-101 -834,-6 -834,-6 -23,-23 c -33,-35 -644,-1676 -644,-1732 0,-19 9,-44 19,-57 l 19,-24 1128,-3 c 636,-1 1132,-6 1138,-11 6,-5 52,-12 101,-16 200,-14 329,-44 422,-96 41,-23 44,-23 37,-1 -3,9 36,-59 86,-153 322,-595 645,-1032 1082,-1461 456,-448 909,-770 1483,-1054 582,-289 1158,-463 1810,-550 314,-41 863,-53 1196,-25 101,9 189,13 196,10 8,-2 12,-1 9,4 -6,10 116,25 198,25 33,0 51,3 40,6 -27,10 58,22 104,15 29,-4 33,-3 17,5 -15,7 -8,8 30,5 37,-3 43,-2 25,4 -15,5 -18,9 -9,10 9,1 32,3 50,6 29,4 30,3 9,-4 -60,-21 20,-9 179,28 175,41 376,99 368,107 -2,3 -16,0 -31,-6 -15,-5 -33,-10 -39,-9 -7,0 65,26 158,58 275,94 571,218 608,255 11,11 17,33 17,59 v 42 l -767,767 c -518,517 -777,769 -795,773 -16,4 -77,-2 -140,-14 -196,-36 -307,-50 -520,-62 -300,-17 -598,5 -908,67 -559,113 -1098,366 -1535,720 -107,87 -200,172 -165,150 l 25,-15 1,62 c 1,94 42,148 149,198 143,67 362,89 1001,98 426,6 463,7 482,24 11,10 59,121 108,247 48,126 91,227 95,225 4,-3 9,1 12,8 134,333 188,487 180,518 -4,15 -3,20 5,
        15 7,-4 10,-2 7,6 -3,8 48,164 114,347 66,183 123,345 126,361 5,22 0,35 -22,58 l -28,30 -330,6 c -181,3 -935,7 -1675,7 -740,1 -1329,4 -1310,8 26,5 31,8 18,13 -27,11 -67,100 -80,178 -15,85 -1,186 36,258 45,89 144,168 258,206 81,27 208,44 348,48 89,2 86,3 -45,8 -77,3 370,7 993,8 1011,2 1138,4 1167,18 37,17 53,50 155,321 29,78 57,140 62,137 4,-3 5,2 2,10 -3,8 -1,23 6,33 9,15 10,14 4,-7 -25,-96 90,188 155,378 43,128 48,147 30,122 -15,-20 -22,-41 126,370 70,195 127,370 128,388 1,21 -7,40 -21,55 l -23,22 -1237,5 c -680,3 -1237,7 -1237,8 0,1 -1,37 -3,80 -4,90 11,145 68,242 46,79 81,121 180,221 87,88 182,168 277,236 38,26 70,50 73,53 3,3 43,30 90,61 205,134 361,218 605,324 117,51 422,153 540,180 133,31 300,63 360,70 33,4 68,9 79,11 10,2 51,6 90,9 39,4 89,8 111,11 22,2 141,4 265,2 481,-4 471,-4 450,-18 -11,-8 -8,-9 13,-4 57,13 428,-75 671,-160 163,-57 194,-63 226,-46 10,5 68,95 130,200 62,104 116,187 120,185 13,-8 176,250 353,562 57,99 119,234 112,241 -3,3 -5,1 -5,-4 0,-6 -7,-19 -15,-30 -15,-17 -15,-16 -1,11 8,17 80,147 160,290 152,271 164,302 129,343 -38,45 -504,230 -793,315 -494,146 -921,216 -1445,237 -137,5 -259,9 -270,8 -11,-1 -58,-3 -105,-5 z m 1930,-1883 c -6,-11 -13,-20 -16,-20 -2,0 0,9 6,20 6,11 13,20 16,20 2,0 0,-9 -6,-20 z m -32,-55 c -6,-14 -13,-23 -15,-21 -5,5 15,46 22,46 3,0 -1,-11 -7,-25 z m -1680,-162 c -32,-2 -84,-2 -115,0 -32,2 -6,3 57,3 63,0 89,-1 58,-3 z m 230,
        -10 c -15,-2 -42,-2 -60,0 -18,2 -6,4 27,4 33,0 48,-2 33,-4 z m 110,-10 c -10,-2 -28,-2 -40,0 -13,2 -5,4 17,4 22,1 32,-1 23,-4 z M 8241,7673 c -12,-20 -14,-14 -5,12 4,9 9,14 11,11 3,-2 0,-13 -6,-23 z m -120,-320 c -12,-20 -14,-14 -5,12 4,9 9,14 11,11 3,-2 0,-13 -6,-23 z m 138,-2222 c -6,-18 -13,-30 -15,-28 -2,2 1,18 7,36 6,18 13,30 15,28 2,-2 -1,-18 -7,-36 z m -160,-430 c -6,-18 -13,-30 -15,-28 -2,2 1,18 7,36 6,18 13,30 15,28 2,-2 -1,-18 -7,-36 z M 2963,4153 c -7,-2 -21,-2 -30,0 -10,3 -4,5 12,5 17,0 24,-2 18,-5 z m 3930,0 c -13,-2 -35,-2 -50,0 -16,2 -5,4 22,4 28,0 40,-2 28,-4 z M 10247,994 c -3,-3 -12,-4 -19,-1 -8,3 -5,6 6,6 11,1 17,-2 13,-5 z m -70,-20 c -3,-3 -12,-4 -19,-1 -8,3 -5,6 6,6 11,1 17,-2 13,-5 z m -70,-20 c -3,-3 -12,-4 -19,-1 -8,3 -5,6 6,6 11,1 17,-2 13,-5 z m -80,-20 c -3,-3 -12,-4 -19,-1 -8,3 -5,6 6,6 11,1 17,-2 13,-5 z m -84,-21 c -7,-2 -19,-2 -25,0 -7,3 -2,5 12,5 14,0 19,-2 13,-5 z m -46,-9 c -3,-3 -12,-4 -19,-1 -8,3 -5,6 6,6 11,1 17,-2 13,-5 z m -44,-11 c -7,-2 -19,-2 -25,0 -7,3 -2,5 12,5 14,0 19,-2 13,-5 z"
        style="fill: #ffffff"
      />
      <path
        id="path300"
        d="m 9093,10083 c 9,-2 23,-2 30,0 6,3 -1,5 -18,5 -16,0 -22,-2 -12,-5 z"
        style="fill: #ffffff"
      />
      <path
        id="path302"
        d="m 8071,4633 c -1,-6 -4,-20 -7,-30 -5,-17 -5,-17 6,0 6,10 9,23 6,30 -3,9 -5,9 -5,0 z"
        style="fill: #ffffff"
      />
      <path
        id="path304"
        d="m 2017,4143 c 161,-2 425,-2 585,0 161,1 30,2 -292,2 -322,0 -453,-1 -293,-2 z"
        style="fill: #ffffff"
      />
      <path
        id="path306"
        d="m 7003,4143 c 31,-2 83,-2 115,0 31,2 5,3 -58,3 -63,0 -89,-1 -57,-3 z"
        style="fill: #ffffff"
      />
      <path
        id="path308"
        d="m 9613,843 c 9,-2 23,-2 30,0 6,3 -1,5 -18,5 -16,0 -22,-2 -12,-5 z"
        style="fill: #ffffff"
      />
      <path
        id="path310"
        d="m 9488,823 c 6,-2 18,-2 25,0 6,3 1,5 -13,5 -14,0 -19,-2 -12,-5 z"
        style="fill: #ffffff"
      />
      <path
        id="path312"
        d="m 9418,813 c 7,-3 16,-2 19,1 4,3 -2,6 -13,5 -11,0 -14,-3 -6,-6 z"
        style="fill: #ffffff"
      />
      <path
        id="path314"
        d="m 9258,793 c 6,-2 18,-2 25,0 6,3 1,5 -13,5 -14,0 -19,-2 -12,-5 z"
        style="fill: #ffffff"
      />
    </g>
    <g id="g1028" transform="translate(811.03521,-48.37663)">
      <g
        id="g920"
        opacity="0.5"
        transform="matrix(1.1781502,0,0,1.1781502,-1038.7113,-64.122299)"
      >
        <path
          id="path918"
          d="m 1046.74,419 c -3,-0.19 -6.09,-2.26 -6.39,-5.24 -0.36,-3.56 3,-6.17 5.13,-9.08 3.72,-5.18 3.27,-12.63 -0.09,-18 -3.36,-5.37 -9.18,-9 -15.29,-10.8 -5.07,-1.51 -11,-2.35 -14,-6.77 -4.74,-7.18 2.59,-16.19 3.22,-24.77 0.6,-8.17 -6.16,-16.18 -14.32,-17 -4.72,-0.45 -10.26,1 -13.68,-2.3 a 9.28,9.28 0 0 1 -2.1,-3.4 c -2.2,-5.71 -1.17,-12.07 -0.89,-18.18 0.28,-6.11 -0.56,-13 -5.27,-16.89 -2.72,-2.27 -6.32,-3.16 -9.81,-3.73 -10.59,-1.73 -21.44,-1.14 -32.06,0.42 -14.79,2.17 -30.21,6.77 -40,18.06 -9.79,11.29 -11.07,30.89 0.75,40 -1,-0.8 -0.56,-2.57 0.87,-4.69 0,0.2 0,0.39 0,0.59 a 30,30 0 0 0 19.69,28.2 v 2.11 a 20.58,20.58 0 0 0 -6.08,2.57 C 896.28,375.07 856,399.89 856,399.89 l -59.15,10 c 0,0 -29,4.46 -27.9,8.93 1.1,4.47 27.9,1.12 27.9,1.12 h 59.81 a 32.26,32.26 0 0 0 15.52,-4 l 32.7,-18 c -0.16,2.6 -0.24,5.28 -0.26,8 -5.17,3.7 -10.23,11.78 0.4,28.42 l 0.08,-0.46 c 0,0.15 0,0.31 0,0.46 l -11.89,54.82 c -3.62,2.68 -6.1,5.15 -5.24,6.47 0.5,0.76 1.84,0.9 3.67,0.65 l -16.46,76 46.12,55.7 7.7,44.1 -7.25,6.95 -26.9,5 a 2.44,2.44 0 0 0 0.45,4.84 h 58.94 v -11.11 h 0.54 l -1,-13.34 18.63,-12.18 -6.11,-9.34 -0.87,0.57 L 950.55,622.7 948,589.94 975.2,491.4 v 0 -0.11 0 l -6.68,-27.49 11.71,-5.94 A 17.17,17.17 0 0 0 988.7,437 c -1.79,-5.19 -4,-11.31 -6.58,-17.53 a 50,50 0 0 0 13.24,9.47 c 19.38,9.11 42.62,0.43 60,-12.07 -2.75,1.13 -5.63,2.33 -8.62,2.13 z m -83.48,23.13 -4.15,-17.06 5.64,14.42 c -0.75,1.31 -1.31,2.29 -1.5,2.65 z M 940.1,367.69 v -1.28 a 29.9,29.9 0 0 0 10.68,
          -5 42.77,42.77 0 0 0 1.29,13.36 c -2.63,-3.41 -6.43,-5.77 -11.98,-7.06 z M 908.78,564.27 932.62,495.34 918,577.17 Z"
          transform="translate(-144.63,-186.3)"
          fill="url(#66874382-e7df-403e-944e-b16abddffc78)"
          style="fill: url(#66874382-e7df-403e-944e-b16abddffc78)"
        />
      </g>
      <path
        id="path922"
        d="m -70.451347,468.71968 -24.611558,16.09353 -28.369855,27.2035 a 2.792216,2.792216 0 0 0 -0.40057,3.53445 v 0 a 2.792216,2.792216 0 0 0 3.86433,0.81292 l 56.55121,-36.94679 z"
        fill="#333333"
        style="stroke-width: 1.17815"
      />
      <path
        id="path924"
        d="m -121.31209,177.51631 -56.89288,31.23275 a 36.946791,36.946791 0 0 1 -17.77829,4.55944 h -68.52121 v -11.5223 l 67.75541,-11.51054 c 0,0 76.72115,-47.27916 81.7872,-31.93964 5.06604,15.33951 -6.35023,19.18029 -6.35023,19.18029 z"
        fill="#6c63ff"
        class="fill-logoInv3"
        style="stroke-width: 1.17815"
      />
      <path
        id="path926"
        d="m -60.201441,295.14282 h -94.428739 l 14.1378,-65.19884 c 0,-35.48589 -7.0689,-77.62832 28.42877,-77.62832 v 0 c 35.485882,0 31.656894,24.24634 31.656894,59.72044 z"
        fill="#6c63ff"
        class="fill-logoInv3"
        style="stroke-width: 1.17815"
      />
      <path
        id="path928"
        d="m -120.56986,127.53917 h 20.12281 v 27.88681 a 9.2720417,9.2720417 0 0 1 -9.27204,9.27204 h -1.57873 a 9.2720417,9.2720417 0 0 1 -9.27204,-9.27204 z"
        fill="#fda57d"
        style="stroke-width: 1.17815"
      />
      <polygon
        id="polygon930"
        points="801.26,467.76 819.65,453.31 764.24,375.78 788.78,304.82 748.7,304.82 731.62,383.66 "
        fill="#e0e0e0"
        transform="matrix(1.1781502,0,0,1.1781502,-1036.7113,-64.122299)"
      />
      <polygon
        id="polygon932"
        points="801.26,467.76 819.65,453.31 764.24,375.78 788.78,304.82 748.7,304.82 731.62,383.66 "
        opacity="0.04"
        transform="matrix(1.1781502,0,0,1.1781502,-1036.7113,-64.122299)"
      />
      <polygon
        id="polygon934"
        points="784.86,486.15 808.97,486.15 802.4,400.75 828.85,304.82 788.12,304.82 770.47,403.68 "
        fill="#e0e0e0"
        transform="matrix(1.1781502,0,0,1.1781502,-1036.7113,-64.122299)"
      />
      <path
        id="path936"
        d="M -128.98185,194.13999"
        fill="#6c63ff"
        class="fill-logoInv3"
        style="stroke-width: 1.17815"
      />
      <path
        id="path938"
        d="m -74.009361,238.88614 -62.642249,44.76971 5.11317,8.95394 73.233821,-37.14708 a 19.663327,19.663327 0 0 0 9.707959,-23.94001 c -8.730094,-25.33023 -25.412701,7.36344 -25.412701,7.36344 z"
        opacity="0.05"
        style="stroke-width: 1.17815"
      />
      <path
        id="path940"
        d="m -90.856908,187.31851 20.664755,52.84004 -63.902867,37.02925 6.39735,16.62371 73.233821,-37.14709 a 19.663327,19.663327 0 0 0 9.707957,-23.94 c -8.730093,-25.29489 -26.767572,-69.99391 -42.071743,-59.48481 a 11.781502,11.781502 0 0 0 -4.029273,14.0789 z"
        opacity="0.05"
        style="stroke-width: 1.17815"
      />
      <path
        id="path942"
        d="m -92.129311,184.76193 20.676536,52.85181 -62.642245,42.18956 3.81721,11.5223 74.506214,-37.14706 a 19.663327,19.663327 0 0 0 9.707958,-23.94002 c -8.730092,-25.29488 -26.767573,-69.9939 -42.071744,-59.4848 a 11.781502,11.781502 0 0 0 -3.993929,14.00821 z"
        fill="#6c63ff"
        class="fill-logoInv3"
        style="stroke-width: 1.17815"
      />
      <path
        id="path944"
        d="m -84.235704,508.6472 h -29.453756 l -38.63154,7.24561 a 2.792216,2.792216 0 0 0 -2.27383,2.74509 v 0 a 2.792216,2.792216 0 0 0 2.79221,2.79222 h 67.51979 z"
        fill="#333333"
        style="stroke-width: 1.17815"
      />
      <path
        id="path946"
        d="m -89.348877,187.74265 c 0,0 15.315953,20.45268 12.78293,35.7922"
        opacity="0.05"
        style="stroke-width: 1.17815"
      />
      <path
        id="path948"
        d="m -120.56986,153.48203 a 34.50802,34.50802 0 0 0 20.12281,1.08391 v -24.47019 h -20.12281 z"
        opacity="0.05"
        style="stroke-width: 1.17815"
      />
      <circle
        id="circle950"
        cx="-108.72948"
        cy="118.58524"
        r="34.401985"
        fill="#fda57d"
        style="stroke-width: 1.17815"
      />
      <path
        id="path952"
        d="m -264.50447,201.7862 c 0,0 -33.23562,5.11317 -31.96321,10.22633 1.27239,5.11318 31.96321,1.2842 31.96321,1.2842 z"
        fill="#fda57d"
        style="stroke-width: 1.17815"
      />
      <path
        id="path954"
        d="m -133.24675,280.03893 c 0,0 -29.74829,15.69296 -26.86183,20.11103 2.88647,4.41806 30.63191,-9.23671 30.63191,-9.23671 z"
        fill="#fda57d"
        style="stroke-width: 1.17815"
      />
      <path
        id="path956"
        d="m -134.09502,194.13999 c 0,0 -25.76614,5.63156 -6.49161,35.79221"
        fill="#6c63ff"
        class="fill-logoInv3"
        style="stroke-width: 1.17815"
      />
      <path
        id="path958"
        d="m -103.41599,196.69658 c 0,0 -25.76614,5.63157 -6.49161,35.79221"
        opacity="0.05"
        style="stroke-width: 1.17815"
      />
      <path
        id="path960"
        d="m -102.13181,196.69658 c 0,0 -25.76614,5.63157 -6.4916,35.79221"
        fill="#6c63ff"
        class="fill-logoInv3"
        style="stroke-width: 1.17815"
      />
      <path
        id="path962"
        d="m -83.151807,129.62449 c -6.797926,11.01571 -6.385574,25.31845 -1.885039,37.45341 4.500533,12.13494 12.641551,22.52623 20.888602,32.50515 7.728665,9.35452 16.011062,18.79151 26.991421,23.9518 22.208132,10.43841 48.822545,0.49482 68.745069,-13.81971 -3.157449,1.34309 -6.468052,2.72154 -9.88469,2.49768 -3.416629,-0.22384 -6.974645,-2.59192 -7.328086,-5.99677 -0.412358,-4.07641 3.534449,-7.06892 5.890757,-10.40309 4.264897,-5.89074 3.746502,-14.46767 -0.09426,-20.67653 -3.840764,-6.20885 -10.5091034,-10.27346 -17.5190996,-12.37056 -5.8082795,-1.73189 -12.6415464,-2.69798 -15.9874914,-7.75225 -5.419488,-8.24705 2.968945,-18.54407 3.68761,-28.36985 0.695106,-9.35451 -7.068906,-18.5323 -16.399848,-19.42769 -5.40771,-0.51839 -11.781506,1.17815 -15.669402,-2.63906 a 10.603352,10.603352 0 0 1 -2.3563,-3.89968 c -2.521242,-6.53873 -1.343092,-13.831481 -1.024991,-20.829692 0.3181,-6.998212 -0.647983,-14.868256 -6.032129,-19.345226 -3.122099,-2.591931 -7.233843,-3.616922 -11.239553,-4.264904 -12.134948,-1.979292 -24.564432,-1.307747 -36.722943,0.483042 -16.95358,2.485896 -34.60227,7.752229 -45.83004,20.688317 -11.22777,12.93609 -12.68868,35.344503 0.86005,45.877173 -4.79507,-3.71118 18.57943,-25.565864 29.55979,-18.85041 12.50017,7.58729 12.75936,25.91931 31.350573,25.18885 z"
        fill="#333333"
        style="stroke-width: 1.17815"
      />
    </g>
  </svg>